<?xml version="1.0" encoding="UTF-8" standalone="no"?>
<!-- Created with Inkscape (http://www.inkscape.org/) -->

<svg
   xmlns:dc="http://purl.org/dc/elements/1.1/"
   xmlns:cc="http://creativecommons.org/ns#"
   xmlns:rdf="http://www.w3.org/1999/02/22-rdf-syntax-ns#"
   xmlns:svg="http://www.w3.org/2000/svg"
   xmlns="http://www.w3.org/2000/svg"
   xmlns:sodipodi="http://sodipodi.sourceforge.net/DTD/sodipodi-0.dtd"
   xmlns:inkscape="http://www.inkscape.org/namespaces/inkscape"
   width="1600"
   height="900"
   id="svg3045"
   version="1.1"
   inkscape:version="0.48.4 r9939"
   sodipodi:docname="goethe-titlebg.svg">
  <defs
     id="defs3047" />
  <sodipodi:namedview
     id="base"
     pagecolor="#d1d2d3"
     bordercolor="#666666"
     borderopacity="1.0"
     inkscape:pageopacity="1"
     inkscape:pageshadow="2"
     inkscape:zoom="0.49497475"
     inkscape:cx="502.71298"
     inkscape:cy="344.35096"
     inkscape:document-units="px"
     inkscape:current-layer="layer1"
     showgrid="false"
     borderlayer="true"
     inkscape:window-width="1280"
     inkscape:window-height="1000"
     inkscape:window-x="0"
     inkscape:window-y="24"
     inkscape:window-maximized="1" />
  <metadata
     id="metadata3050">
    <rdf:RDF>
      <cc:Work
         rdf:about="">
        <dc:format>image/svg+xml</dc:format>
        <dc:type
           rdf:resource="http://purl.org/dc/dcmitype/StillImage" />
        <dc:title></dc:title>
      </cc:Work>
    </rdf:RDF>
  </metadata>
  <g
     inkscape:label="Ebene 1"
     inkscape:groupmode="layer"
     id="layer1"
     transform="translate(0,-152.36218)">
    <path
       style="fill:#001c0e;fill-opacity:0.07058824"
       d="m -202.0466,1114.2094 0.013,-6.8268 c 0.043,-22.3299 10.6724,-46.2764 28.3709,-63.9156 19.497,-19.4316 40.2221,-31.3256 102.616,-58.89044 47.1937,-20.84961 77,-35.36235 77,-37.49138 0,-2.83742 -7.3606,-16.85666 -19.4417,-37.02941 -16.3084,-27.23128 -20.0583,-35.08311 -20.0583,-42 0,-3.85749 0.7442,-6.99319 2.4918,-10.5 3.8631,-7.75139 20.269,-23.38716 40.2582,-38.36822 9.7625,-7.3166 17.75,-13.71188 17.75,-14.21174 0,-0.69822 -10.6526,-15.7768 -12.5927,-17.82472 -0.2108,-0.22258 -3.4681,1.64657 -7.2385,4.15367 -16.9640004,11.28031 -28.8248,14.78152 -43.1964,12.75124 -20.1455,-2.84595 -32.8184,-15.83847 -36.6661,-37.59103 -2.8548,-16.13884 0.9609,-37.36183 9.7849,-54.42335 l 3.8863,-7.51415 -3.9644,-9.1955 c -5.5084,-12.77669 -8.0151,-23.0232 -8.0033,-32.71454 0.012,-9.66206 2.0724,-14.77208 9.8556,-24.43912 6.5626,-8.15111 6.5177,-7.4581 2.0184,-31.12254 -2.0838,-10.96016 -3.0007,-19.02803 -3.1303,-27.54546 -0.1746,-11.47785 -0.055,-12.26491 2.546,-16.70262 1.5011,-2.56145 5.3617,-6.68277 8.5791,-9.15851 6.9004,-5.30975 9.1214,-9.41453 9.1214,-16.85805 0,-8.46686 1.6778,-15.58324 5.5219,-23.42157 6.0732,-12.38352 17.6813,-22.29787 40.6085,-34.68318 l 8.6303,-4.66215 2.1957,-9.50192 c 4.8097,-20.81408 12.5916,-30.23891 33.2849,-40.3124 35.8949,-17.4736 65.4432,-19.78441 86.8583,-6.7927 l 5.5997,3.39709 6.9003,-2.95016 c 14.9721,-6.40112 34.4598,-10.84327 60.7551,-13.84891 31.8819,-3.6442 41.9513,-2.49878 53.2897,6.06185 4.8594,3.66883 16.5275,16.99441 17.5398,20.03125 0.2638,0.79154 2.5523,0.0752 6.8559,-2.14601 5.6367,-2.90926 7.4361,-3.33877 14.1199,-3.37035 6.9442,-0.0328 8.0656,0.2478 12,3.00274 2.447,1.71347 5.7447,5.42086 7.5605,8.5 1.7712,3.00359 3.5712,6.03207 4,6.72996 0.603,0.98157 1.7985,0.75513 5.2795,-1 3.6918,-1.86142 6.1303,-2.2689 13.5777,-2.2689 8.7,0 9.4425,0.18089 17.8503,4.34814 14.5755,7.22433 28.1698,21.65322 36.0288,38.24062 7.4618,15.74907 9.3474,31.53686 5.5432,46.41124 -1.1,4.30096 -2,8.1578 -2,8.57076 0,0.41295 2.0151,1.7263 4.4779,2.91856 15.8448,7.67034 25.4901,33.43754 29.5504,78.943 1.3655,15.30435 0.8948,18.99317 -4.6367,36.33897 -5.3162,16.67062 -5.4958,19.53624 -1.4135,22.55443 8.2002,6.06263 15.8329,14.3635 18.2998,19.90171 7.7924,17.49382 7.6292,46.69445 -0.3489,62.44165 -5.9277,11.69999 -19.196,24.24583 -28.3538,26.80985 -7.6778,2.14967 -19.1662,0.80767 -33.9248,-3.96293 -7.0673,-2.28443 -13.3864,-3.94753 -14.0425,-3.69578 -2.654,1.01844 -13.873,19.67779 -11.8331,19.68088 0.3988,6e-4 8.8252,4.31164 18.7252,9.5801 29.6065,15.75561 43.3071,25.92625 47.0763,34.94707 2.0455,4.89568 1.7543,14.19036 -0.693,22.11639 -1.1641,3.77044 -5.2676,13.60534 -9.1188,21.85534 -13.9988,29.98802 -27.7645,61.02081 -27.7645,62.59091 0,1.82521 5.8973,4.7062 46.5,22.71663 75.0562,33.29319 109.0942,51.56609 126.772,68.05609 10.2906,9.599 20.4174,26.2423 25.3341,41.6364 4.0333,12.6278 5.3753,20.879 6.0586,37.25 z m 294.3002,-50.4876 c -0.1247,-1.77 -3.4034,-7.2133 -8.734,-14.5 -4.6939,-6.4163 -13.3353,-18.866 -19.2031,-27.666 -5.8678,-8.8001 -13.6909,-20.5 -17.3845,-26.00003 -3.6937,-5.5 -8.621,-13.15 -10.9496,-17 -4.6206,-7.63964 -9.6953,-13.5 -11.69,-13.5 -0.6977,0 -1.7768,0.94958 -2.398,2.11019 -0.9557,1.78584 -0.3715,3.59431 3.8009,11.76604 6.2946,12.3281 20.6901,35.7832 38.7834,63.1915 15.2371,23.0814 17.3366,25.199 24.4747,24.6845 3.1719,-0.2286 3.4813,-0.5179 3.3002,-3.0862 z m 102.492,0.7439 c 15.9241,-3.2851 28.8706,-9.0806 34.7008,-15.5338 5.1685,-5.721 5.2971,-7.6748 1.0256,-15.5781 -5.7829,-10.6997 -5.6749,-10.6023 -10.3561,-9.3418 -4.6788,1.2599 -7.093,4.5824 -9.5235,13.1066 -0.8723,3.0595 -2.6361,7.1095 -3.9194,9 l -2.3334,3.4372 -10.5942,-0.096 c -9.0564,-0.082 -11.2982,-0.4453 -15.4432,-2.5 -6.4906,-3.2177 -6.7279,-5.4523 -1.2141,-11.4341 6.1457,-6.6673 9.0491,-7.9581 14.4801,-6.4375 3.7336,1.0453 4.7103,0.9848 6.8615,-0.4247 5.565,-3.6463 11.0626,-19.3056 10.2652,-29.23938 -0.8961,-11.16286 -6.7552,-17.10986 -10.2323,-10.38579 -1.2839,2.48266 -1.4717,4.76625 -0.9354,11.37507 0.5398,6.6528 0.3518,8.8857 -0.9618,11.426 -2.9435,5.6922 -6.7233,6.4468 -16.112,3.2166 -13.3798,-4.6033 -19.5,-1.0258 -19.5,11.3987 0,15.3985 11.3197,35.4563 21.7914,38.6129 3.7913,1.1429 3.4648,1.1593 12.0008,-0.6016 z m 86.0266,-4.0851 c 14.155,-9.7489 36.9424,-41.5523 43.2231,-60.3248 1.3984,-4.17941 2.3655,-10.15117 2.7089,-16.72676 0.4725,-9.04818 0.3358,-10.30279 -1.1859,-10.88675 -2.3795,-0.91309 -3.8686,1.02313 -6.6246,8.61348 -5.704,15.70944 -27.6122,41.96603 -41.9403,50.26473 -3.575,2.0706 -10.325,4.9256 -15,6.3444 -9.1095,2.7647 -12,4.592 -12,7.5857 0,3.2319 3.676,9.2797 8.0329,13.2159 8.4551,7.6387 13.8198,8.0894 22.7859,1.9141 z m -127.6344,-3.9917 c 2.8246,-2.5562 2.1823,-6.5388 -2.5323,-15.7011 -7.2666,-14.1219 -10.5205,-17.8262 -19.9076,-22.663 -17.8223,-9.1832 -29.8683,-20.4769 -48.2308,-45.21903 -6.9721,-9.39444 -11.5943,-14.75 -12.7302,-14.75 -2.7187,0 -2.2561,3.40703 2.2281,16.41188 13.9095,40.33905 31.0058,64.05015 55.2916,76.68505 15.2155,7.916 21.5124,9.1899 25.8812,5.2362 z m 0.9625,-48.4274 c 6.3174,-4.0539 22.9994,-21.5856 29.5345,-31.03891 9.7016,-14.03397 12.3077,-20.97113 8.9309,-23.77363 -0.7633,-0.63344 -6.2758,-1.58325 -12.25,-2.11069 -25.4586,-2.24765 -43.8215,-11.38161 -67.0202,-33.33678 -10.9875,-10.39857 -19.5308,-22.59635 -27.7678,-39.64572 -8.9622,-18.55052 -7.3122,-19.56499 8.2604,-5.07857 22.2493,20.69743 40.4918,34.80125 52.6371,40.69524 l 6.9718,3.38333 20.5967,0 c 23.1559,0 28.0173,-0.86945 35.0894,-6.27564 5.7433,-4.39042 8.8703,-10.56432 8.8703,-17.51361 0,-9.98894 -5.7265,-15.14697 -19.3163,-17.39888 -5.163,-0.85553 -8.1837,-0.7444 -15.308,0.56317 -11.2592,2.0665 -14.9047,2.02275 -19.8757,-0.23852 -11.3727,-5.17334 -6.98,-12.35227 8.5753,-14.01434 5.4943,-0.58708 8.911,-0.20339 19.5416,2.19453 11.1514,2.51538 13.4483,2.75308 17.0876,1.76834 5.6392,-1.52583 10.0083,-5.39433 11.4221,-10.11342 1.4884,-4.96758 -0.4709,-8.31666 -6.4546,-11.03346 -5.7818,-2.62514 -9.4267,-2.41216 -18.172,1.06183 -8.6742,3.44576 -12.7455,3.70538 -19.6503,1.25304 -4.9012,-1.74076 -4.9462,-1.73721 -12.6738,1 -4.2654,1.51083 -8.7003,2.74696 -9.8555,2.74696 -1.1552,0 -4.8512,-2.025 -8.2132,-4.5 -3.362,-2.475 -6.3755,-4.5 -6.6965,-4.5 -0.3211,0 -2.5323,1.39932 -4.9138,3.10961 -4.3016,3.0892 -4.3466,3.09741 -6.8491,1.25 -2.8292,-2.08863 -2.7262,-4.14079 0.535,-10.6499 2.7448,-5.47847 5.7399,-6.2893 11.8309,-3.20279 7.011,3.55277 9.9721,3.26554 15.4801,-1.50159 8.1611,-7.06336 12.2818,-6.65007 20.6589,2.07198 7.3891,7.69344 9.1304,7.74112 16.3654,0.44814 8.1246,-8.18982 12.5331,-8.4826 22.9819,-1.52631 3.3,2.19697 6.737,3.99593 7.6377,3.99768 0.9008,0.002 4.5947,-1.38055 8.2088,-3.07178 3.614,-1.69122 7.5866,-2.92872 8.8279,-2.75 3.6193,0.52113 6.8256,6.27565 6.8256,12.25034 0,7.85105 1.7044,9.57462 9.4681,9.57462 l 6.3547,0 5.8386,-6.40177 c 9.9621,-10.92298 27.5972,-41.28755 30.8384,-53.09823 1.0448,-3.80723 1.9365,-12.76104 2.44,-24.5 0.7,-16.32373 1.162,-19.78499 3.9268,-29.42343 3.2876,-11.46083 3.791,-17.74925 2.1368,-26.69008 -1.0028,-5.42021 -4.8154,-10.40796 -7.3634,-9.63319 -2.6981,0.82039 -5.64,9.1047 -5.64,15.88186 0,5.85617 -0.3504,7.13121 -2.75,10.00594 -4.8665,5.83009 -8.6,8.78129 -15.6344,12.35823 -7.979,4.0573 -11.0873,4.34558 -14.3011,1.32636 -2.833,-2.66147 -2.9249,-5.38419 -0.3145,-9.32569 2.6379,-3.9831 2.5709,-4.26012 -1.5,-6.20139 -6.3471,-3.02674 -4.1777,-5.63939 6.5381,-7.87369 3.9924,-0.83245 7.9796,-1.90667 8.8604,-2.38715 2.7127,-1.47976 7.794,-7.33415 10.0014,-11.52296 3.3242,-6.30813 2.686,-9.16747 -2.8724,-12.86851 -3.7256,-2.48064 -4.5163,-2.03646 -4.6458,2.6098 -0.3873,13.89223 -13.212,23.18426 -25.1272,18.20576 -7.1009,-2.96693 -11.2545,-9.21223 -11.2545,-16.92202 0,-5.59778 -1.317,-5.8283 -8.1709,-1.43015 -3.0369,1.94877 -5.0898,4.08078 -5.4989,5.71093 -0.5708,2.27406 0.185,3.36085 6.0089,8.64031 3.664,3.32149 6.6616,6.80105 6.6613,7.73237 -6e-4,2.37088 -3.8522,4.8067 -7.6005,4.8067 -4.9452,0 -5.3749,1.45615 -3.2462,11 1.0428,4.675 2.2587,14.4328 2.7021,21.68401 0.8745,14.30122 0.2095,12.51542 8.4622,22.72585 0.9999,1.2371 2.2418,4.13533 2.7597,6.44051 0.7742,3.44582 0.5974,4.85448 -0.9943,7.92043 -2.106,4.05651 -6.3065,8.68073 -10.4919,11.55026 -1.4609,1.00158 -3.7831,3.60623 -5.1604,5.78812 -3.6488,5.78 -5.6943,6.39631 -14.9062,4.49125 -10.8058,-2.2347 -14.0497,-2.06464 -17.9933,0.94329 -5.1386,3.91939 -9.6015,2.15982 -13.3983,-5.28248 -1.1875,-2.32759 -3.1878,-4.90608 -4.4452,-5.72997 -2.0848,-1.36599 -2.9427,-1.2638 -9.7372,1.15973 -8.9902,3.20676 -11.3542,2.82195 -17.5073,-2.84972 -5.4395,-5.01403 -7.3397,-10.19272 -5.305,-14.45811 1.0224,-2.14329 2.1931,-2.96251 4.5621,-3.19233 2.6888,-0.26085 3.434,0.16888 4.7687,2.75 0.8701,1.68254 1.8358,3.05916 2.146,3.05916 0.3102,0 3.3361,-2.47298 6.7243,-5.49551 3.5832,-3.19651 7.1016,-5.49738 8.4103,-5.5 4.0438,-0.008 8.447,6.07358 9.7959,13.53007 1.0377,5.73629 2.1879,7.45626 6.0712,9.0788 7.0422,2.94244 15.2564,-1.7161 17.4608,-9.90264 0.8878,-3.29692 0.6878,-5.56458 -1.1442,-12.97921 -2.3428,-9.48147 -2.3323,-8.09481 -0.305,-40.23151 0.568,-9.00291 0.3271,-11.24636 -2.4164,-22.5 -4.0608,-16.65709 -4.5581,-21.27904 -3.2792,-30.47428 1.5416,-11.08331 3.8009,-15.49918 10.7209,-20.95398 7.0159,-5.53048 21.0448,-12.55192 31.346,-15.6887 14.0052,-4.26466 29.6355,-2.30515 41.4678,5.19866 3.63,2.30207 5.3656,2.88362 6.4932,2.17569 2.3351,-1.46601 4.9248,-9.14798 4.9748,-14.75739 0.056,-6.25389 -2.3754,-11.59058 -11.7614,-25.81668 -6.8402,-10.36755 -10.1746,-18.10691 -10.1742,-23.61482 1e-4,-1.41268 0.9048,-8.1128 2.0105,-14.88918 2.2514,-13.79907 1.7513,-20.90797 -2.0187,-28.69581 -4.3855,-9.05927 -14.9343,-18.45804 -23.6658,-21.08585 -3.7075,-1.1158 -6.8566,-1.09435 -19.6212,0.13365 -25.1152,2.41616 -26.5206,2.28627 -45.5608,-4.21091 -14.6237,-4.99015 -17.6153,-5.68616 -24.6442,-5.73368 -9.5938,-0.0648 -37.4311,2.93294 -46.4724,5.0046 -21.4696,4.91942 -37.9228,20.87213 -44.84,43.47604 -2.6938,8.80293 -4.4889,24.60524 -3.667,32.2805 0.8663,8.08913 -0.1718,11.75619 -8.5355,30.15214 -3.7508,8.25 -7.3603,17.025 -8.021,19.5 -0.9065,3.39548 -0.9882,12.72256 -0.3327,38 1.2571,48.48439 1.2193,49.8874 -1.4607,54.22382 -1.2333,1.99545 -4.2921,4.82935 -6.7974,6.29756 -7.1842,4.2102 -8.6278,10.03112 -6.3661,25.66823 1.414,9.77649 3.4113,13.3037 8.8714,15.66724 5.4661,2.36612 6.7572,1.86972 11.1895,-4.30209 6.0484,-8.42225 8.5623,-7.03534 8.1431,4.49245 -0.4531,12.46174 5.349,34.61508 13.8971,53.06094 l 4.9159,10.60815 -3.9411,11.39185 c -2.1676,6.26552 -5.5926,17.64961 -7.6109,25.29799 -5.0514,19.14161 -4.7798,25.19148 1.7442,38.8469 16.0114,33.51361 35.1958,56.47376 63.6256,76.14799 13.9507,9.6543 16.8241,10.3051 24.3049,5.5047 z m 9.9795,-250.56854 c -4.5942,-5.57359 -10.0601,-16.54679 -10.7075,-21.49606 -0.5042,-3.85421 -0.089,-5.12628 3.7022,-11.34113 3.3923,-5.56105 4.3574,-8.18199 4.6947,-12.75 0.541,-7.32666 -1.0012,-7.56682 -8.027,-1.25 -4.0622,3.65224 -5.7152,4.5 -8.7745,4.5 -6.0801,0 -6.7388,-1.98686 -2.5787,-7.77754 1.9512,-2.71581 4.2137,-6.53223 5.0279,-8.48093 1.3786,-3.29931 1.3387,-3.72331 -0.5798,-6.16229 -1.1332,-1.44056 -3.4303,-3.32764 -5.1047,-4.19352 -3.9043,-2.01901 -4.8429,-0.7209 -4.0879,5.65385 0.3896,3.28931 0.04,5.72568 -1.1967,8.33094 -2.2633,4.76961 -9.8442,11.41688 -13.8848,12.17491 -5.0403,0.94557 -13.8813,-2.87998 -18.1606,-7.85823 -3.4458,-4.0087 -3.5854,-4.46427 -3.2741,-10.68719 0.306,-6.11809 0.1911,-6.51901 -1.955,-6.8235 -2.6511,-0.37613 -7.8851,4.6415 -8.8494,8.48359 -1.3663,5.44367 5.1069,15.33991 10.0339,15.33991 2.3992,0 1.9207,2.76577 -0.9804,5.66694 -2.2151,2.21504 -3.2047,2.50517 -7.0623,2.07036 -5.7095,-0.64354 -8.6895,-3.37947 -12.7845,-11.7373 l -3.1848,-6.5 -4.9754,0.30018 c -4.6026,0.27768 -5.3019,-10e-4 -9.3297,-3.7196 l -4.3542,-4.01978 0.5078,-7.2804 c 0.7177,-10.28858 3.8208,-17.6529 10.46,-24.8241 12.6754,-13.69094 38.2364,-20.21914 60.6074,-15.47896 9.7266,2.06095 23.9372,10.41067 35.1331,20.64314 6.2231,5.68752 7.0174,7.15096 8.9907,16.56459 1.2194,5.81736 1.1108,7.12862 -1.6982,20.51476 l -3.0009,14.30017 2.1527,13 c 2.3995,14.4903 2.5604,19.36652 0.8079,24.48782 -1.6261,4.75156 -3.8538,4.85441 -7.5672,0.34937 z m -42.6831,-60.5597 c 2.2479,-3.20928 2.0206,-8.45884 -0.4228,-9.76651 -2.8691,-1.53553 -7.013,-0.16104 -8.0951,2.68513 -2.5493,6.70532 4.6115,12.65853 8.5179,7.08138 z M 86.8681,682.55577 c 4.4971,-4.28953 6.4615,-5.5 8.9257,-5.5 2.9443,0 3.1596,0.23849 3.1596,3.5 0,1.925 0.1125,3.49466 0.25,3.48813 0.1375,-0.007 2.725,-0.67619 5.75,-1.48813 3.025,-0.81194 7.6771,-1.4816 10.3379,-1.48813 l 4.8379,-0.0119 -0.6758,-4 -0.6758,-4 3.641,0 c 2.2359,0 5.0606,0.96474 7.32,2.5 4.7172,3.2054 5.2148,3.14855 5.2148,-0.59571 0,-6.53204 -7.0333,-12.98204 -18.4066,-16.87995 -6.6929,-2.29388 -10.6607,-2.49003 -19.1597,-0.94719 -9.9139,1.79968 -17.7719,7.6884 -22.2857,16.70065 -3.1289,6.24734 -3.3531,8.6917 -1.0642,11.6016 3.2198,4.09327 6.2286,3.41804 12.8309,-2.8794 z M 262.119,1004.7475 c 11.9903,-5.9506 29.2657,-17.28346 33.9999,-22.3043 10.7738,-11.42608 24.0573,-33.12907 28.3471,-46.31421 2.3015,-7.07397 2.1374,-12.90494 -0.9589,-34.07322 -3.4031,-23.26565 -4.4318,-28.01601 -6.2154,-28.70041 -2.1503,-0.82518 -3.7452,1.26842 -7.0626,9.27132 -4.3085,10.3938 -9.5476,17.8274 -19.7137,27.971 -16.8547,16.81736 -48.6644,35.17925 -68.261,39.40306 -15.3128,3.30048 -17.7534,4.21995 -18.1235,6.82763 -0.3324,2.34188 12.3115,27.71742 17.7476,35.61855 3.464,5.03471 9.5197,10.65168 15.9164,14.76328 6.5761,4.2268 11.939,3.6839 24.3241,-2.4627 z M 223.763,795.79983 c 2.5278,-2.09622 4.3597,-7.6878 3.6358,-11.09765 -0.792,-3.7307 -2.894,-6.30993 -6.7802,-8.31955 l -2.8395,-1.46838 0.688,6.42527 c 0.532,4.96748 0.3249,7.12766 -0.9128,9.5211 -0.8805,1.70271 -1.6009,4.07443 -1.6009,5.27049 0,1.90665 0.3888,2.0969 3.1547,1.54372 1.7351,-0.34701 3.8298,-1.19076 4.6549,-1.875 z M -19.4021,760.9627 c 3.7477,-1.8578 6.8518,-4.89932 13.6054996,-13.33152 C -0.83070003,741.4311 2.9534,735.76654 2.9534,734.53287 c 0,-1.59471 -1.0292,-2.57801 -3.86390003,-3.69151 l -3.86390037,-1.51779 -4.2792,4.96782 c -7.5988996,8.82179 -14.2577996,11.0505 -19.4635996,6.51438 -1.912,-1.66602 -2.8287,-3.78814 -3.5321,-8.17626 -1.1123,-6.93971 -1.791,-7.84244 -5.5656,-7.40192 -2.4134,0.28166 -3.0855,1.10783 -4.7419,5.82818 -1.0614,3.025 -2.155,8.44928 -2.4302,12.05395 -0.5005,6.5565 0.8927,11.04136 4.9679,15.99194 4.6373,5.63352 11.5379,6.26252 20.417,1.86104 z M 402.678,725.82701 c 3.4496,-1.12828 8.0738,-3.61878 10.3724,-5.58624 4.1475,-3.55011 4.1476,-3.55051 3.6212,-9.35666 -0.3636,-4.00928 -1.5881,-7.74421 -3.9562,-12.06737 -5.0551,-9.22826 -7.7797,-9.02379 -15.9155,1.19439 -10.2263,12.84361 -26.404,13.25189 -38.6797,0.97615 -5.5933,-5.59331 -7.6098,-10.25723 -7.5367,-17.43151 0.1127,-11.06547 7.2814,-21.0961 17.5426,-24.54619 7.1473,-2.4031 8.1674,-4.99145 4.4601,-11.31738 -5.2752,-9.00151 -16.1318,-13.806 -22.6063,-10.0042 -5.991,3.51793 -13.5181,17.23604 -16.1236,29.38506 -2.5356,11.82305 7.9884,35.50698 20.9599,47.16946 6.144,5.52399 16.9789,11.3263 24.7821,13.27132 6.9445,1.73097 14.2666,1.19582 23.0797,-1.68683 z M 262.1448,695.53503 c 0.859,-1.88537 0.7474,-2.92377 -0.5229,-4.86245 -2.4144,-3.68481 -5.6504,-4.35744 -7.8564,-1.63306 -2.4782,3.06042 -2.2734,5.64584 0.6812,8.60047 2.0694,2.06944 2.8429,2.30622 4.5496,1.39284 1.1309,-0.60526 2.5477,-2.17927 3.1485,-3.4978 z m 25.5334,-15.73019 c 0.4387,-3.8921 0.1234,-4.8524 -2.6191,-7.97591 -3.5897,-4.08841 -7.8979,-6.34691 -16.057,-8.41754 -5.135,-1.30315 -6.5191,-1.29021 -12.5897,0.11765 -7.608,1.76442 -9.459,2.87806 -9.459,5.691 0,1.39192 -1.7454,2.70248 -6.3514,4.76905 -6.2432,2.80114 -7.6486,4.30415 -7.6486,8.17985 0,3.12624 2.0106,3.1082 10.7926,-0.0968 9.5085,-3.47018 12.7419,-3.67844 20.2759,-1.30591 7.3825,2.32484 7.4685,2.3011 7.1013,-1.96044 -0.2811,-3.26371 -0.046,-3.75 1.8129,-3.75 1.2615,0 4.2607,2.17417 7.3266,5.31124 2.8549,2.92118 5.5791,4.98531 6.0537,4.58696 0.4747,-0.39835 1.0875,-2.71546 1.3618,-5.14913 z m 73.4307,-75.49907 c 0.2482,-5.98302 -0.087,-8.31654 -2.2641,-15.75 -3.5527,-12.13193 -8.6097,-21.40294 -15.353,-28.14657 -5.7572,-5.75742 -6.776,-6.33871 -16.0924,-9.18161 -10.6154,-3.23932 -11.7009,-3.47435 -15.196,-3.2903 -1.6329,0.086 -2.25,0.73676 -2.25,2.37273 0,1.56017 2.2929,4.23881 7.4468,8.69973 9.0396,7.82401 12.7035,12.57834 19.5415,25.35698 8.3737,15.64827 15.7488,23.67531 21.7617,23.6853 1.9064,0.003 2.2737,-0.56889 2.4055,-3.74626 z M 21.1167,558.84386 c 5.6715,-3.18757 7.9133,-7.46026 8.9702,-17.09626 1.1165,-10.17883 3.9973,-16.13531 9.7611,-20.18268 3.9905,-2.80215 4.8466,-2.9968 12.4453,-2.82968 4.4881,0.0987 9.2557,0.32371 10.5948,0.5 2.1218,0.27934 2.5716,-0.23024 3.5,-3.96519 1.4203,-5.71387 12.26,-19.12416 20.2236,-25.01965 11.1297,-8.23927 17.506,-9.58898 31.5263,-6.67332 12.0589,2.50776 16.8692,4.4278 26.388,10.53277 10.9826,7.04375 13.2232,7.7416 16.4547,5.12493 3.6396,-2.94722 1.6452,-5.83778 -7.9553,-11.52963 -9.3078,-5.51831 -12.072,-8.08641 -12.072,-11.21549 0,-7.51523 14.0645,-6.93024 30.4403,1.26612 8.0079,4.0081 19.5597,11.9096 19.5597,13.37897 0,2.31443 7.1397,15.76065 8.6831,16.3529 1.1303,0.43375 2.7,-0.35341 4.707,-2.36049 2.5989,-2.59889 3.068,-3.90259 3.4258,-9.52059 0.8212,-12.89665 -1.5012,-16.94481 -14.6915,-25.60912 -11.3188,-7.435 -14.5543,-8.14762 -26.7031,-5.88139 -5.4567,1.01789 -11.7618,1.87074 -14.0113,1.89522 -7.0874,0.0771 -19.3304,-3.6693 -25.8534,-7.91123 -18.1654,-11.81295 -27.2922,-12.63746 -45.0566,-4.07037 -9.8949,4.7719 -16.1425,9.9093 -15.1611,12.46684 0.6335,1.651 1.6967,1.74008 12.9918,1.08861 l 12.3017,-0.70954 3.1838,2.67899 c 3.9416,3.31665 3.9682,4.53823 0.1922,8.83882 -4.9685,5.65888 -13.2715,10.75651 -19.7076,12.09961 -15.5524,3.24548 -49.2135,29.9826 -61.3107,48.69932 -6.9119,10.6941 -7.6433,17.35947 -2.2274,20.29812 3.6982,2.00664 4.8166,1.92972 9.4006,-0.64659 z m 275.1819,-23.57891 c 7.9929,-5.3944 12.7229,-7.40501 18.694,-7.94645 7.0183,-0.6364 14.7158,1.70527 19.5458,5.94605 2.409,2.11515 3.5223,2.5938 3.8128,1.63932 0.2257,-0.74146 0.6663,-2.14052 0.9791,-3.10904 2.6889,-8.32522 -12.7095,-22.1668 -27.0528,-24.3177 -5.7017,-0.85502 -18.978,1.00683 -30.2075,4.23626 -7.892,2.26963 -8.4928,2.31192 -10.25,0.72167 -4.0344,-3.6511 -1.2626,-16.37115 5.847,-26.83196 5.4838,-8.06873 18.5616,-22.1825 21.3844,-23.07844 2.8789,-0.91373 2.3929,-4.30757 -0.7291,-5.09114 -5.4668,-1.37208 -27.8877,8.47016 -34.7777,15.26656 -4.4886,4.42769 -8.1557,11.77594 -9.8081,19.65373 -1.5389,7.33695 0.6184,13.09392 7.3143,19.51855 4.2527,4.08037 5.0233,5.45338 5.9851,10.66324 1.4425,7.8144 3.1287,10.90094 7.6784,14.05498 3.265,2.26346 4.565,2.54996 10.2523,2.25937 5.3759,-0.27468 7.3545,-0.90065 11.332,-3.585 z"
       id="path2570"
       inkscape:connector-curvature="0"
       sodipodi:nodetypes="csssssscsscsssscsssssssssscssscssscsssccsssssscsssssssccsccssssscccsscsscssscsssscccssssssccsssssscscsssssssssssssssscssssscssssssssscsssssssssssssssssssscsssssssssssssssssssscscscssssscssccsssscsssssscssssssscsscssssssssscscsssssscsssssscsssscccsscsssssscsscsscsssssscscssssssssssscccssssscsssssscssscssssssccsssssssscsscscssssccssssssssssscscsccssssssssscsscsssssssssssssssssssscsssscccssssscscsssssssssccssssssssscsss" />
    <path
       style="fill:#000000;fill-opacity:0"
       d="m 82.585,1066.1615 c -2.6059,-1.3032 -6.5916,-6.5671 -17.6062,-23.2523 -18.0934,-27.4083 -32.4888,-50.86338 -38.7834,-63.19148 -4.1725,-8.17173 -4.7567,-9.9802 -3.8009,-11.76604 0.6211,-1.16061 1.7002,-2.11019 2.398,-2.11019 1.9947,0 7.0693,5.86036 11.69,13.5 2.3286,3.85 7.2559,11.5 10.9495,17 3.6937,5.50001 11.5167,17.20001 17.3845,26.00001 5.8679,8.8 14.5092,21.2497 19.2031,27.6661 5.3306,7.2867 8.6093,12.7299 8.7341,14.5 0.181,2.5682 -0.1284,2.8575 -3.3002,3.0861 -1.925,0.1388 -5.0158,-0.5057 -6.8685,-1.4322 z m 100.6598,-0.3084 c -10.4716,-3.1566 -21.7913,-23.2145 -21.7913,-38.6129 0,-12.4245 6.1201,-16.0021 19.5,-11.3987 9.3886,3.2301 13.1684,2.4755 16.112,-3.2166 1.3136,-2.5403 1.5016,-4.7732 0.9618,-11.4261 -0.5363,-6.60877 -0.3485,-8.89236 0.9353,-11.37502 3.4772,-6.72407 9.3363,-0.77707 10.2323,10.38582 0.7974,9.9337 -4.7001,25.593 -10.2651,29.2394 -2.1513,1.4095 -3.128,1.4699 -6.8615,0.4246 -5.431,-1.5206 -8.3344,-0.2298 -14.4802,6.4376 -5.5137,5.9818 -5.2765,8.2164 1.2142,11.434 4.145,2.0548 6.3868,2.4177 15.4431,2.5 l 10.5943,0.096 2.3334,-3.4372 c 1.2833,-1.8904 3.0471,-5.9404 3.9194,-9 2.4304,-8.5241 4.8446,-11.8467 9.5235,-13.1065 4.6811,-1.2606 4.5732,-1.358 10.356,9.3417 4.2716,7.9034 4.143,9.8572 -1.0256,15.5781 -5.8301,6.4533 -18.7766,12.2488 -34.7008,15.5338 -8.5359,1.7609 -8.2094,1.7446 -12.0008,0.6017 z m 82.564,-1.4105 c -6.9874,-3.1463 -15.3553,-13.1768 -15.3553,-18.4063 0,-2.9937 2.8905,-4.8209 12,-7.5856 4.675,-1.4189 11.425,-4.2739 15,-6.3445 14.3281,-8.2987 36.2363,-34.55527 41.9402,-50.26471 2.756,-7.59035 4.2452,-9.52657 6.6246,-8.61348 1.5218,0.58396 1.6585,1.83857 1.1859,10.88675 -0.3434,6.57559 -1.3105,12.54735 -2.7088,16.72674 -6.2808,18.7725 -29.0681,50.5759 -43.2232,60.3249 -6.2331,4.2929 -10.9744,5.2974 -15.4634,3.2762 z m -124.9632,-6.4744 c -32.1267,-11.8092 -52.3779,-36.3055 -68.3805,-82.71483 -4.4842,-13.00485 -4.9468,-16.41188 -2.2282,-16.41188 1.136,0 5.7582,5.35556 12.7303,14.75 18.3625,24.74213 30.4085,36.03581 48.2308,45.21911 6.4451,3.3209 9.0429,5.3356 11.9021,9.2306 5.2027,7.0875 12.3534,21.377 12.3534,24.6862 0,5.9046 -6.4787,8.2289 -14.6079,5.2408 z m 0.9498,-47.5789 c -4.5134,-1.9636 -18.4813,-11.78792 -27.9091,-19.62986 -18.098,-15.05378 -34.6633,-37.38985 -47.2164,-63.66491 -6.524,-13.65542 -6.7956,-19.70529 -1.7442,-38.8469 2.0183,-7.64838 5.4432,-19.03247 7.6109,-25.29799 l 3.9411,-11.39185 -4.916,-10.60815 c -8.548,-18.44586 -14.3502,-40.5992 -13.897,-53.06094 0.4192,-11.52779 -2.0948,-12.9147 -8.1432,-4.49245 -4.4322,6.17181 -5.7233,6.66821 -11.1894,4.30209 -5.4601,-2.36354 -7.4574,-5.89075 -8.8714,-15.66724 -2.2618,-15.63711 -0.8181,-21.45803 6.3661,-25.66823 2.5053,-1.46821 5.5641,-4.30211 6.7974,-6.29756 2.68,-4.33642 2.7178,-5.73943 1.4606,-54.22382 -0.6554,-25.27744 -0.5737,-34.60452 0.3327,-38 0.6607,-2.475 4.2702,-11.25 8.0211,-19.5 8.3637,-18.39594 9.4017,-22.063 8.5355,-30.15213 -0.822,-7.67526 0.9731,-23.47757 3.667,-32.2805 6.9171,-22.60391 23.3703,-38.55663 44.84,-43.47604 9.0413,-2.07167 36.8786,-5.06946 46.4724,-5.0046 7.0288,0.0475 10.0204,0.74353 24.6442,5.73368 19.0401,6.49718 20.4456,6.62707 45.5607,4.21091 12.7647,-1.228 15.9138,-1.24945 19.6213,-0.13365 8.7315,2.6278 19.2803,12.02657 23.6658,21.08585 3.77,7.78784 4.2701,14.89674 2.0186,28.69581 -1.1056,6.77638 -2.0103,13.4765 -2.0104,14.88918 -5e-4,5.50791 3.334,13.24727 10.1742,23.61482 9.3859,14.22609 11.8172,19.56278 11.7614,25.81667 -0.05,5.60941 -2.6397,13.29138 -4.9748,14.75739 -1.1277,0.70793 -2.8633,0.12638 -6.4933,-2.17569 -11.8322,-7.50381 -27.4625,-9.46332 -41.4677,-5.19866 -10.3013,3.13678 -24.3301,10.15822 -31.3461,15.6887 -6.9199,5.4548 -9.1792,9.87067 -10.7208,20.95398 -1.2789,9.19524 -0.7816,13.81719 3.2792,30.47428 2.7434,11.25364 2.9844,13.49709 2.4164,22.5 -2.0274,32.1367 -2.0379,30.75004 0.3049,40.23151 1.8321,7.41463 2.032,9.68229 1.1443,12.97921 -2.2044,8.18654 -10.4186,12.84508 -17.4609,9.90264 -3.8833,-1.62254 -5.0334,-3.34251 -6.0711,-9.0788 -1.3489,-7.45649 -5.7521,-13.53814 -9.7959,-13.53007 -1.3088,0.003 -4.8271,2.30349 -8.4104,5.5 -3.3881,3.02253 -6.4141,5.49551 -6.7243,5.49551 -0.3102,0 -1.2759,-1.37662 -2.1459,-3.05916 -1.3348,-2.58112 -2.08,-3.01085 -4.7688,-2.75 -2.3689,0.22982 -3.5397,1.04904 -4.5621,3.19233 -2.0347,4.26539 -0.1345,9.44408 5.3051,14.45811 6.153,5.67167 8.5171,6.05648 17.5073,2.84972 6.7944,-2.42353 7.6524,-2.52572 9.7371,-1.15973 1.2575,0.82389 3.2578,3.40238 4.4452,5.72997 3.7968,7.4423 8.2597,9.20187 13.3983,5.28248 3.9436,-3.00793 7.1876,-3.17799 17.9934,-0.94329 9.2119,1.90506 11.2574,1.28875 14.9062,-4.49125 1.3773,-2.18189 3.6995,-4.78654 5.1604,-5.78812 4.1853,-2.86953 8.3858,-7.49375 10.4918,-11.55026 1.5918,-3.06595 1.7686,-4.47461 0.9944,-7.92043 -0.518,-2.30518 -1.7598,-5.20341 -2.7597,-6.44051 -8.2527,-10.21043 -7.5878,-8.42463 -8.4623,-22.72585 -0.4433,-7.25121 -1.6593,-17.00901 -2.702,-21.68401 -2.1287,-9.54385 -1.699,-11 3.2462,-11 3.7483,0 7.5999,-2.43582 7.6005,-4.8067 2e-4,-0.93132 -2.9974,-4.41088 -6.6613,-7.73237 -5.8239,-5.27946 -6.5797,-6.36625 -6.009,-8.64031 0.4092,-1.63015 2.462,-3.76216 5.4989,-5.71093 6.8539,-4.39815 8.171,-4.16763 8.171,1.43015 0,14.36013 15.2529,23.12486 27.1325,15.59104 5.291,-3.35545 9.0641,-10.2394 9.2492,-16.87478 0.1295,-4.64626 0.9202,-5.09044 4.6458,-2.6098 5.5584,3.70104 6.1966,6.56038 2.8724,12.86851 -2.2075,4.18881 -7.2888,10.0432 -10.0014,11.52296 -0.8808,0.48048 -4.868,1.5547 -8.8605,2.38715 -10.7157,2.2343 -12.8852,4.84695 -6.538,7.87369 4.0709,1.94127 4.1379,2.21829 1.5,6.20139 -2.6104,3.9415 -2.5186,6.66422 0.3144,9.32569 3.2138,3.01922 6.3222,2.73094 14.3012,-1.32636 7.0344,-3.57694 10.7679,-6.52814 15.6344,-12.35823 2.3995,-2.87473 2.75,-4.14977 2.75,-10.00594 0,-6.77716 2.9419,-15.06147 5.64,-15.88186 2.548,-0.77477 6.3605,4.21298 7.3634,9.63319 1.6542,8.94083 1.1507,15.22925 -2.1368,26.69008 -2.7648,9.63844 -3.2268,13.0997 -3.9268,29.42343 -0.5035,11.73896 -1.3952,20.69277 -2.44,24.5 -3.2412,11.81068 -20.8764,42.17525 -30.8384,53.09823 l -5.8386,6.40177 -6.3547,0 c -7.7637,0 -9.4681,-1.72357 -9.4681,-9.57462 0,-5.97469 -3.2063,-11.72921 -6.8256,-12.25034 -1.2413,-0.17872 -5.2139,1.05878 -8.8279,2.75 -3.6141,1.69123 -7.308,3.07353 -8.2088,3.07178 -0.9008,-0.002 -4.3377,-1.80071 -7.6377,-3.99768 -10.4489,-6.95629 -14.8573,-6.66351 -22.982,1.52631 -7.2349,7.29298 -8.9762,7.2453 -16.3654,-0.44814 -8.377,-8.72205 -12.4977,-9.13534 -20.6588,-2.07198 -5.508,4.76713 -8.4691,5.05436 -15.4802,1.50159 -6.0909,-3.08651 -9.0861,-2.27568 -11.8309,3.20279 -3.2611,6.50911 -3.3642,8.56127 -0.5349,10.6499 2.5025,1.84741 2.5474,1.8392 6.8491,-1.25 2.3815,-1.71029 4.5927,-3.10961 4.9137,-3.10961 0.3211,0 3.3345,2.025 6.6966,4.5 3.362,2.475 7.0579,4.5 8.2131,4.5 1.1552,0 5.5902,-1.23613 9.8556,-2.74696 7.7276,-2.73721 7.7726,-2.74076 12.6738,-1 6.9047,2.45234 10.9761,2.19272 19.6503,-1.25304 4.1536,-1.65 9.0028,-2.99012 10.776,-2.97804 4.4858,0.0306 11.2336,3.3 13.2907,6.43957 3.6511,5.57226 -2.0039,14.22666 -10.8622,16.62352 -3.6394,0.98474 -5.9362,0.74704 -17.0876,-1.76834 -10.6307,-2.39792 -14.0473,-2.78161 -19.5417,-2.19453 -15.5552,1.66207 -19.948,8.841 -8.5752,14.01434 4.971,2.26127 8.6164,2.30502 19.8757,0.23852 7.1242,-1.30757 10.145,-1.4187 15.308,-0.56317 13.5898,2.25191 19.3163,7.40994 19.3163,17.39888 0,6.94929 -3.127,13.12319 -8.8703,17.51361 -7.0721,5.40619 -11.9336,6.27564 -35.0894,6.27564 l -20.5968,0 -6.9717,-3.38333 C 134.78,908.56417 116.5374,894.46035 94.2882,873.76292 78.7156,859.2765 77.0655,860.29097 86.0278,878.84149 c 8.237,17.04937 16.7803,29.24715 27.7678,39.64572 23.1987,21.95517 41.5616,31.08913 67.0202,33.33678 5.9742,0.52744 11.4867,1.47725 12.25,2.11069 3.3768,2.8025 0.7707,9.73966 -8.931,23.77363 -6.535,9.45331 -23.217,26.98499 -29.5344,31.03889 -5.2727,3.3835 -7.9987,3.733 -12.805,1.6421 z M 172.147,757.82931 c 1.7526,-5.1213 1.5917,-9.99752 -0.8078,-24.48782 l -2.1527,-13 3.0009,-14.30017 c 2.809,-13.38614 2.9175,-14.6974 1.6981,-20.51476 -1.9732,-9.41363 -2.7675,-10.87707 -8.9906,-16.56459 -11.1959,-10.23247 -25.4065,-18.58219 -35.1331,-20.64314 -22.371,-4.74018 -47.932,1.78802 -60.6074,15.47896 -6.6392,7.1712 -9.7423,14.53552 -10.46,24.8241 l -0.5078,7.2804 4.3542,4.01978 c 4.0278,3.71848 4.7271,3.99728 9.3296,3.7196 l 4.9755,-0.30018 3.1847,6.5 c 4.095,8.35783 7.0751,11.09376 12.7846,11.7373 3.8576,0.43481 4.8472,0.14468 7.0622,-2.07036 2.9012,-2.90117 3.3797,-5.66694 0.9804,-5.66694 -4.927,0 -11.4001,-9.89624 -10.0339,-15.33991 0.9643,-3.84209 6.1983,-8.85972 8.8494,-8.48359 2.1462,0.30449 2.2611,0.70541 1.955,6.8235 -0.3112,6.22292 -0.1716,6.67849 3.2742,10.68719 4.2793,4.97825 13.1202,8.8038 18.1606,7.85823 4.0406,-0.75803 11.6215,-7.4053 13.8848,-12.17491 1.2363,-2.60526 1.5862,-5.04163 1.1967,-8.33094 -0.755,-6.37475 0.1835,-7.67286 4.0879,-5.65385 1.6744,0.86588 3.9715,2.75296 5.1046,4.19352 1.9185,2.43898 1.9584,2.86298 0.5799,6.16229 -0.8142,1.9487 -3.0768,5.76512 -5.0279,8.48093 -4.1602,5.79068 -3.5014,7.77754 2.5787,7.77754 3.0592,0 4.7123,-0.84776 8.7744,-4.5 7.0259,-6.31682 8.5681,-6.07666 8.027,1.25 -0.3373,4.56801 -1.3023,7.18895 -4.6946,12.75 -3.7911,6.21485 -4.2064,7.48692 -3.7022,11.34113 1.0659,8.14912 11.8887,25.62966 15.4461,24.94787 0.8992,-0.17235 2.1721,-1.88288 2.8285,-3.80118 z m -56.8319,-59.00546 c -4.0073,-2.34023 -2.9045,-10.25281 1.586,-11.37985 3.9368,-0.98808 6.5524,0.89212 6.5524,4.71017 0,5.94991 -3.8992,9.1454 -8.1384,6.66968 z M 74.5373,686.22089 c -2.289,-2.9099 -2.0647,-5.35426 1.0642,-11.6016 4.5137,-9.01225 12.3717,-14.90097 22.2856,-16.70065 8.499,-1.54284 12.4668,-1.34669 19.1598,0.94719 11.3732,3.89791 18.4066,10.34791 18.4066,16.87995 0,3.74426 -0.4977,3.80111 -5.2148,0.59571 -2.2594,-1.53526 -5.0841,-2.5 -7.3201,-2.5 l -3.6409,0 0.6758,4 0.6758,4 -4.8379,0.0119 c -2.6609,0.007 -7.3129,0.67619 -10.3379,1.48813 -3.025,0.81194 -5.6125,1.4816 -5.75,1.48813 -0.1375,0.007 -0.25,-1.56313 -0.25,-3.48813 0,-3.26151 -0.2153,-3.5 -3.1596,-3.5 -2.4642,0 -4.4287,1.21047 -8.9258,5.5 -6.6022,6.29744 -9.6111,6.97267 -12.8308,2.8794 z m 163.7576,321.77501 c -6.3967,-4.1116 -12.4524,-9.72855 -15.9163,-14.76326 -5.4361,-7.90113 -18.08,-33.27667 -17.7476,-35.61855 0.37,-2.60768 2.8107,-3.52715 18.1234,-6.82763 19.5966,-4.22381 51.4064,-22.5857 68.2611,-39.40306 10.1661,-10.1436 15.4052,-17.5772 19.7137,-27.971 3.3174,-8.0029 4.9122,-10.0965 7.0626,-9.27132 1.7835,0.6844 2.8123,5.43476 6.2153,28.70041 3.0963,21.16828 3.2604,26.99925 0.9589,34.07322 -4.2897,13.18514 -17.5732,34.88813 -28.347,46.31421 -4.7342,5.02084 -22.0096,16.3537 -33.9999,22.30428 -12.3852,6.1466 -17.7481,6.6896 -24.3242,2.4627 z M 216.4535,796.91683 c 0,-1.19606 0.7204,-3.56778 1.6009,-5.27049 1.2377,-2.39344 1.4448,-4.55362 0.9128,-9.5211 l -0.6881,-6.42527 2.8396,1.46838 c 6.1249,3.16733 8.492,8.96889 6.0464,14.81955 -1.7344,4.14918 -3.4997,5.6612 -7.5569,6.47265 -2.7659,0.55318 -3.1547,0.36293 -3.1547,-1.54372 z m -252,-33.71013 c -3.1981,-2.26865 -4.5536,-3.94066 -7.1429,-8.81126 -1.721,-3.23733 -2.0079,-5.12315 -1.5975,-10.5 0.2752,-3.60467 1.3688,-9.02895 2.4302,-12.05395 1.6563,-4.72035 2.3285,-5.54652 4.7419,-5.82818 3.7745,-0.44052 4.4533,0.46221 5.5656,7.40192 0.7033,4.38812 1.62,6.51024 3.532,8.17626 5.2058,4.53612 11.8647,2.30741 19.4635996,-6.51438 l 4.2792,-4.96782 3.86400037,1.51779 C 2.4242,732.74058 3.4535,733.72388 3.4535,735.31859 c 0,1.23367 -3.78410003,6.89823 -8.7500004,13.09831 -6.7537996,8.4322 -9.8577996,11.47372 -13.6054996,13.33152 -6.4499,3.1973 -13.3418,3.80112 -16.6445,1.45828 z m 415.6449,-34.90714 c -7.8032,-1.94502 -18.6381,-7.74733 -24.7821,-13.27132 -12.9715,-11.66248 -23.4955,-35.34641 -20.96,-47.16946 2.6055,-12.14902 10.1327,-25.86713 16.1237,-29.38506 6.4744,-3.8018 17.3311,1.00269 22.6063,10.0042 3.7072,6.32593 2.6872,8.91428 -4.4601,11.31738 -10.2612,3.45009 -17.4299,13.48072 -17.5426,24.54619 -0.073,7.17428 1.9434,11.8382 7.5367,17.43151 12.2757,12.27574 28.4534,11.86746 38.6796,-0.97615 8.1359,-10.21818 10.8605,-10.42265 15.9156,-1.19439 2.3681,4.32316 3.5926,8.05809 3.9561,12.06737 0.5265,5.80615 0.5264,5.80655 -3.6212,9.35666 -7.7105,6.59992 -22.9018,9.9028 -33.452,7.27307 z M 254.9468,698.42571 c -2.9547,-2.95463 -3.1594,-5.54005 -0.6813,-8.60047 2.2061,-2.72438 5.4421,-2.05175 7.8565,1.63306 1.9009,2.90117 0.7545,6.55121 -2.6257,8.36025 -1.7066,0.91338 -2.4801,0.6766 -4.5495,-1.39284 z m 25.816,-17.27298 c -3.0659,-3.13707 -6.0651,-5.31124 -7.3267,-5.31124 -1.8589,0 -2.094,0.48629 -1.8128,3.75 0.3672,4.26154 0.2812,4.28528 -7.1013,1.96044 -7.534,-2.37253 -10.7674,-2.16427 -20.2759,1.30591 -8.782,3.20502 -10.7926,3.22306 -10.7926,0.0968 0,-3.8757 1.4054,-5.37871 7.6486,-8.17985 4.606,-2.06657 6.3514,-3.37713 6.3514,-4.76905 0,-2.81294 1.851,-3.92658 9.459,-5.691 6.0706,-1.40786 7.4547,-1.4208 12.5896,-0.11765 8.1592,2.07063 12.4674,4.32913 16.0571,8.41754 2.7424,3.12351 3.0578,4.08381 2.6191,7.97591 -0.2743,2.43367 -0.8871,4.75078 -1.3618,5.14913 -0.4747,0.39835 -3.1988,-1.66578 -6.0537,-4.58696 z m 73.0078,-74.25943 c -4.5243,-2.75868 -10.252,-10.38475 -16.3288,-21.74084 -6.838,-12.77864 -10.502,-17.53297 -19.5415,-25.35698 -9.6015,-8.31046 -10.0974,-12.08177 -1.4468,-11.00407 0.825,0.10278 5.9757,1.55264 11.446,3.22191 9.3163,2.8429 10.3352,3.42419 16.0923,9.18161 10.3325,10.33294 18.1965,29.92761 17.6172,43.89657 -0.1318,3.17737 -0.4991,3.74943 -2.4055,3.74626 -1.2375,-0.002 -3.6823,-0.87706 -5.4329,-1.94446 z M 12.2162,560.27618 c -5.416,-2.93865 -4.6845,-9.60402 2.2274,-20.29812 12.0972,-18.71672 45.7582,-45.45385 61.3106,-48.69933 6.4362,-1.3431 14.7391,-6.44073 19.7077,-12.09961 3.776,-4.30059 3.7494,-5.52217 -0.1922,-8.83882 l -3.1838,-2.67899 -12.3018,0.70954 c -11.295,0.65147 -12.3582,0.56239 -12.9917,-1.08861 -0.9815,-2.55754 5.2662,-7.69494 15.1611,-12.46684 17.7644,-8.56708 26.8912,-7.74258 45.0566,4.07038 6.523,4.24192 18.766,7.98833 25.8533,7.91122 2.2496,-0.0245 8.5547,-0.87733 14.0114,-1.89522 12.1488,-2.26623 15.3843,-1.55361 26.7031,5.88139 13.1903,8.66431 15.5126,12.71247 14.6914,25.60912 -0.3577,5.61801 -0.8268,6.9217 -3.4257,9.5206 -2.0071,2.00708 -3.5767,2.79423 -4.707,2.36049 -1.5434,-0.59226 -8.6831,-14.03848 -8.6831,-16.35291 0,-1.46937 -11.5518,-9.37087 -19.5597,-13.37897 -16.3759,-8.19636 -30.4403,-8.78135 -30.4403,-1.26612 0,3.12908 2.7642,5.69718 12.072,11.21549 9.6005,5.69185 11.5949,8.58241 7.9552,11.52963 -3.2314,2.61667 -5.472,1.91882 -16.4546,-5.12493 -9.5188,-6.10497 -14.3292,-8.025 -26.388,-10.53277 -14.0203,-2.91566 -20.3967,-1.56595 -31.5263,6.67332 -7.9637,5.89549 -18.8033,19.30578 -20.2236,25.01966 -0.9284,3.73495 -1.3782,4.24452 -3.5,3.96518 -1.3391,-0.17629 -6.1068,-0.40129 -10.5948,-0.5 -7.5987,-0.16712 -8.4548,0.0275 -12.4453,2.82969 -5.7639,4.04737 -8.6446,10.00385 -9.7611,20.18268 -1.0569,9.636 -3.2988,13.90869 -8.9703,17.09626 -4.5839,2.57631 -5.7023,2.65323 -9.4005,0.64659 z M 275.2143,537.3763 c -4.5496,-3.15403 -6.2358,-6.24057 -7.6784,-14.05498 -0.9617,-5.20985 -1.7323,-6.58287 -5.985,-10.66323 -6.6959,-6.42464 -8.8532,-12.18161 -7.3143,-19.51856 1.6524,-7.87779 5.3195,-15.22604 9.8081,-19.65373 6.89,-6.7964 29.3109,-16.63864 34.7777,-15.26656 3.122,0.78357 3.608,4.17741 0.7291,5.09114 -2.8229,0.89594 -15.9007,15.00971 -21.3845,23.07844 -7.1095,10.46081 -9.8813,23.18087 -5.8469,26.83196 1.7572,1.59026 2.3579,1.54796 10.25,-0.72167 11.2295,-3.22942 24.5058,-5.09128 30.2075,-4.23626 14.3433,2.15091 29.7416,15.99248 27.0528,24.31771 -0.3129,0.96851 -0.7534,2.36758 -0.9791,3.10903 -0.2905,0.95448 -1.4038,0.47583 -3.8128,-1.63932 -4.83,-4.24077 -12.5275,-6.58244 -19.5458,-5.94605 -5.9711,0.54144 -10.7011,2.55205 -18.6941,7.94645 -3.9774,2.68436 -5.9561,3.31032 -11.332,3.585 -5.6872,0.29059 -6.9873,0.004 -10.2523,-2.25937 z"
       id="path2572"
       inkscape:connector-curvature="0" />
  </g>
</svg>
