<?xml version="1.0" encoding="UTF-8"?>
<!DOCTYPE svg PUBLIC "-//W3C//DTD SVG 1.1//EN" "http://www.w3.org/Graphics/SVG/1.1/DTD/svg11.dtd">
<svg version="1.1" xmlns="http://www.w3.org/2000/svg" xmlns:xlink="http://www.w3.org/1999/xlink" x="0px" y="0px" width="452" height="244" viewBox="0, 0, 452, 244">
  <g id="Layer 1">
    <path d="M46.535,160.465 L43.813,161.52 C42.201,162.199 41.329,162.759 41.268,164.058 C41.146,167.529 41.268,172.608 41.146,183.645 C41.022,195.657 35.135,200.115 25.907,200.115 C16.924,200.115 10.662,196.216 10.662,186.736 L10.662,169.326 C10.662,164.126 10.485,162.881 8.742,162.199 L4.277,160.465 L4.277,159.6 C7.32,159.847 10.232,160.099 13.139,160.099 C16.426,160.099 19.646,159.847 22.933,159.6 L22.933,160.465 L20.081,161.52 C16.671,162.821 16.175,163.071 16.058,165.238 C15.869,168.899 15.869,174.218 15.869,183.762 C15.869,191.69 17.665,196.897 27.512,196.897 C34.026,196.897 37.926,192.866 37.926,185.429 C37.926,177.82 37.865,167.96 37.361,163.684 C37.245,162.569 36.313,162.078 34.639,161.52 L31.229,160.465 L31.229,159.6 C33.897,159.847 36.559,160.099 39.287,160.099 C41.642,160.099 44.058,159.847 46.535,159.6 L46.535,160.465" fill="#FFFFFE"/>
    <path d="M97.554,160.78 L93.403,162.263 C92.041,162.76 91.416,163.376 91.355,164.5 C91.169,169.511 90.674,180.48 90.674,184.076 C90.674,186.615 90.674,193.732 90.795,200.796 L89.313,200.796 C85.345,194.917 81.071,189.274 76.858,183.576 L64.28,166.658 L64.158,166.658 L64.158,173.601 C64.158,181.782 64.28,193.985 64.464,195.161 C64.654,196.157 65.089,196.645 66.888,197.202 L70.977,198.504 L70.977,199.366 C68.248,199.128 65.459,198.885 62.736,198.885 C60.066,198.885 57.476,199.128 54.808,199.366 L54.808,198.504 L59.509,196.706 C60.381,196.401 60.938,195.841 61,195.282 C61.245,193.304 61.682,184.076 61.682,176.139 L61.682,163.875 L60.877,162.637 C58.953,161.767 57.038,161.091 55.051,160.464 L55.051,159.601 C57.038,159.847 59.019,160.099 61,160.099 C62.856,160.099 64.715,159.847 66.574,159.601 C67.751,161.767 69.059,163.751 70.541,165.734 L88.073,189.274 L88.196,189.153 L88.196,174.158 C88.196,171.185 88.135,168.15 87.952,165.113 C87.83,163.376 87.332,162.88 85.537,162.141 L81.446,160.464 L81.446,159.601 C83.983,159.847 86.591,160.099 89.128,160.099 C91.913,160.099 94.704,159.847 97.554,159.601 L97.554,160.78" fill="#FFFFFE"/>
    <path d="M108.525,198.505 L113.295,196.897 C114.842,196.339 115.03,196.089 115.084,191.316 C115.152,187.607 115.277,183.824 115.277,180.106 C115.277,176.391 115.152,172.608 115.084,168.899 C114.962,163.072 114.903,162.637 113.724,162.2 L108.525,160.465 L108.525,159.601 C111.491,159.847 114.535,160.099 118,160.099 C121.096,160.099 124.131,159.847 127.235,159.601 L127.235,160.465 L122.028,162.2 C120.85,162.637 120.791,163.072 120.666,168.899 C120.606,172.608 120.476,176.391 120.476,180.106 C120.476,183.824 120.606,187.607 120.666,191.316 C120.729,196.089 120.913,196.339 122.463,196.897 L127.235,198.505 L127.235,199.366 C124.321,199.128 120.729,198.885 118,198.885 C114.903,198.885 111.308,199.128 108.525,199.366 L108.525,198.505" fill="#FFFFFE"/>
    <path d="M134.317,159.6 C137.168,159.846 140.083,160.099 142.928,160.099 C145.534,160.099 148.194,159.846 150.803,159.6 L150.803,160.465 L148.629,161.091 C145.778,161.894 145.222,162.2 145.222,162.881 C145.222,164.189 153.156,183.449 156.069,190.017 C159.848,180.986 163.312,172.055 165.482,165.175 C165.856,164.057 166.102,163.377 166.102,162.697 C166.102,162.016 164.182,161.33 161.453,160.465 L161.453,159.6 C163.808,159.846 166.163,160.099 168.518,160.099 C170.437,160.099 172.294,159.846 174.152,159.6 L174.152,160.465 C171.492,161.145 170.621,161.834 169.633,163.936 C165.728,172.423 160.834,184.626 155.137,200.115 L153.714,200.115 C149.685,188.84 143.362,173.235 139.463,164.242 C138.47,161.956 138.041,161.766 136.054,161.091 L134.317,160.465 L134.317,159.6" fill="#FFFFFE"/>
    <path d="M187.074,168.899 C187.074,163.072 186.884,162.637 185.53,162.2 L180.316,160.464 L180.316,159.601 C185.462,159.847 190.171,160.099 194.874,160.099 C200.768,160.099 206.596,159.847 212.041,159.601 C211.976,161.146 211.851,163.376 211.851,164.311 C211.851,165.238 211.976,167.348 212.041,168.777 L211.17,168.777 L209.559,164.125 C208.944,162.385 208.454,162.385 201.324,162.385 C197.727,162.385 194.874,162.447 192.587,162.506 C192.465,164.68 192.28,166.973 192.28,169.571 L192.28,177.194 L198.719,177.194 C206.222,177.194 206.902,177.072 207.461,175.71 L209.066,171.307 L209.934,171.307 C209.877,173.662 209.809,176.017 209.809,178.311 C209.809,180.855 209.877,183.202 209.934,185.803 L209.066,185.803 L207.461,181.093 C206.902,179.74 206.222,179.61 198.719,179.61 L192.28,179.61 L192.28,188.034 C192.28,190.888 192.465,193.732 192.587,196.338 C195.501,196.401 198.413,196.59 201.205,196.59 C207.824,196.59 208.759,196.523 209.378,195.787 C210.121,194.855 210.802,192.867 211.919,189.214 L212.775,189.214 C212.656,191.01 212.415,192.867 212.415,194.67 L212.415,199.366 C209.196,199.128 199.652,198.885 196.181,198.885 C190.729,198.885 184.781,199.128 180.316,199.366 L180.316,198.504 L185.095,196.897 C186.83,196.338 187.074,196.088 187.074,191.316 L187.074,168.899" fill="#FFFFFE"/>
    <path d="M225.682,198.505 L230.451,196.897 C232.182,196.339 232.43,196.089 232.43,191.316 L232.43,168.899 C232.43,163.072 232.25,162.637 230.883,162.2 L225.682,160.465 L225.682,159.601 C227.974,159.847 230.883,160.099 234.229,160.099 C237.45,160.099 240.978,159.601 245.385,159.601 C253.559,159.601 258.889,162.943 258.889,169.143 C258.889,175.404 254.432,178.369 248.726,179.304 L257.272,192.065 C260.865,197.455 261.18,197.884 264.644,198.505 L264.644,199.366 C263.223,199.253 261.736,199.128 260.318,199.128 C258.824,199.128 257.272,199.253 255.728,199.366 C251.766,192.686 246.248,184.747 242.407,179.74 L237.637,179.74 L237.637,186.858 C237.637,194.917 237.824,196.339 239.436,196.828 L244.381,198.505 L244.381,199.366 C241.721,199.128 237.569,198.885 235.408,198.885 C232.25,198.885 228.653,199.128 225.682,199.366 L225.682,198.505 z M237.637,177.69 L241.852,177.69 C247.614,177.69 252.935,176.766 252.935,169.946 C252.935,164.5 249.162,162.141 243.338,162.141 C241.353,162.141 239.498,162.2 237.637,162.2 L237.637,177.69" fill="#FFFFFE"/>
    <path d="M275.49,188.287 L276.357,188.287 L278.469,196.279 C280.322,197.334 283.232,197.699 284.78,197.699 C289.737,197.699 294.258,195.476 294.258,189.711 C294.258,180.917 274.866,181.651 274.866,170.007 C274.866,162.507 281.803,158.851 288.498,158.851 C291.098,158.851 295.066,159.662 297.672,160.834 L297.292,169.327 L296.612,169.327 L294.201,162.447 C292.094,161.636 290.053,161.267 287.943,161.267 C284.04,161.267 280.441,164.31 280.441,168.462 C280.441,178.189 299.839,175.71 299.839,188.534 C299.839,193.922 295.807,200.115 283.598,200.115 C280.629,200.115 277.969,199.749 274.43,198.38 L275.49,188.287" fill="#FFFFFE"/>
    <path d="M312.245,198.505 L317.016,196.897 C318.57,196.339 318.76,196.089 318.813,191.316 C318.883,187.607 318.998,183.824 318.998,180.106 C318.998,176.391 318.883,172.608 318.813,168.899 C318.7,163.072 318.631,162.637 317.452,162.2 L312.245,160.465 L312.245,159.601 C315.229,159.847 318.264,160.099 321.735,160.099 C324.825,160.099 327.865,159.847 330.963,159.601 L330.963,160.465 L325.756,162.2 C324.578,162.637 324.52,163.072 324.395,168.899 C324.326,172.608 324.204,176.391 324.204,180.106 C324.204,183.824 324.326,187.607 324.395,191.316 C324.456,196.089 324.639,196.339 326.193,196.897 L330.963,198.505 L330.963,199.366 C328.041,199.128 324.456,198.885 321.735,198.885 C318.631,198.885 315.036,199.128 312.245,199.366 L312.245,198.505" fill="#FFFFFE"/>
    <path d="M339.781,159.6 C345.172,159.846 350.492,160.099 355.891,160.099 C361.279,160.099 366.611,159.846 371.998,159.6 L371.998,170.129 L371.129,170.129 L369.271,165.175 C368.406,163.072 367.779,162.822 358.488,162.822 L358.488,189.833 C358.488,192.929 358.613,194.543 358.988,195.408 C359.354,196.216 360.656,196.959 365.371,198.504 L365.371,199.367 C362.451,199.128 359.729,198.885 355.891,198.885 C352.052,198.885 349.324,199.128 346.408,199.367 L346.408,198.504 C351.119,196.959 352.48,196.216 352.785,195.408 C353.16,194.543 353.281,192.929 353.281,189.833 L353.281,162.822 C343.992,162.822 343.369,163.072 342.504,165.175 L340.646,170.129 L339.781,170.129 L339.781,159.6" fill="#FFFFFE"/>
    <path d="M374.198,198.488 C375.695,197.935 377.432,197.254 378.914,196.446 C384.306,183.744 390.996,169.493 395.453,158.347 L396.813,158.347 C401.777,171.23 407.35,184.118 412.609,196.69 L417.815,198.488 L417.815,199.35 C414.539,199.112 411.316,198.867 408.03,198.867 C405.238,198.867 402.518,199.112 399.727,199.35 L399.727,198.488 C401.271,198.119 403.946,197.317 405.797,196.574 C405.055,193.968 403.076,188.143 402.211,186.282 C399.609,186.224 396.944,186.16 394.336,186.16 C391.737,186.16 389.196,186.224 386.601,186.282 C384.924,189.448 383.931,193.097 383.066,196.574 L388.395,198.488 L388.395,199.35 C385.973,199.112 383.557,198.867 381.078,198.867 C378.791,198.867 376.498,199.112 374.198,199.35 L374.198,198.488 z M389.818,156.12 C388.258,156.12 386.905,154.623 386.905,153.016 C386.905,151.654 388.326,150.165 389.818,150.165 C391.369,150.165 392.853,151.585 392.853,153.016 C392.853,154.683 391.424,156.12 389.818,156.12 M394.588,167.33 L387.461,183.744 L401.402,183.744 L394.588,167.33 z M402.084,156.12 C400.597,156.12 399.168,154.623 399.168,153.016 C399.168,151.654 400.66,150.165 402.084,150.165 C403.635,150.165 405.117,151.585 405.117,153.016 C405.117,154.683 403.694,156.12 402.084,156.12" fill="#FFFFFE"/>
    <path d="M418.766,159.6 C424.148,159.846 429.479,160.099 434.875,160.099 C440.262,160.099 445.597,159.846 450.98,159.6 L450.98,170.129 L450.107,170.129 L448.258,165.175 C447.394,163.072 446.765,162.822 437.472,162.822 L437.472,189.833 C437.472,192.929 437.599,194.543 437.967,195.408 C438.341,196.216 439.642,196.959 444.349,198.504 L444.349,199.367 C441.438,199.128 438.715,198.885 434.875,198.885 C431.031,198.885 428.309,199.128 425.396,199.367 L425.396,198.504 C430.099,196.959 431.465,196.216 431.771,195.408 C432.14,194.543 432.271,192.929 432.271,189.833 L432.271,162.822 C422.979,162.822 422.354,163.072 421.488,165.175 L419.631,170.129 L418.766,170.129 L418.766,159.6" fill="#FFFFFE"/>
    <path d="M36.811,101.06 C36.811,99.951 36.532,99.536 33.42,98.36 L29.269,96.775 L29.269,95.8 C32.591,95.935 35.913,96.352 39.232,96.352 C42.344,96.352 45.387,95.935 48.428,95.8 L48.428,96.775 L44.072,98.85 C42.827,99.469 42.623,100.155 42.623,101.613 L42.623,112.264 C42.623,112.959 42.69,114.136 42.76,115.374 C40.132,116.212 34.388,117.315 29.752,117.315 C13.983,117.315 4.292,108.113 4.292,95.113 C4.292,79.261 19.101,71.243 31.345,71.243 C35.15,71.243 38.191,71.584 41.167,72.211 C41.099,74.009 41.031,75.804 41.031,77.539 C41.031,79.54 41.099,81.549 41.167,83.557 L40.2,83.557 C39.232,80.581 37.919,76.771 36.878,75.457 C36.185,74.559 32.04,73.941 29.336,73.941 C19.584,73.941 11.35,80.645 11.35,94.481 C11.35,106.391 18.408,114.612 28.719,114.612 C31.618,114.612 34.251,114.272 36.667,113.447 C36.743,112.401 36.811,111.37 36.811,110.889 L36.811,101.06" fill="#FFFFFE"/>
    <path d="M57.446,94.699 C57.446,80.928 66.09,71.244 80.062,71.244 C92.796,71.244 100.956,80.174 100.956,92.759 C100.956,106.459 92.721,117.314 78.96,117.314 C64.566,117.314 57.446,105.9 57.446,94.699 M93.899,96.08 C93.899,84.524 90.713,73.524 79.306,73.524 C69.683,73.524 64.497,81.549 64.497,91.375 C64.497,105.628 69.547,115.035 79.654,115.035 C90.162,115.035 93.899,105.484 93.899,96.08" fill="#FFFFFE"/>
    <path d="M116.563,82.453 C116.563,75.947 116.355,75.457 114.835,74.982 L109.03,73.033 L109.03,72.074 C114.767,72.347 120.03,72.633 125.282,72.633 C131.857,72.633 138.364,72.347 144.448,72.074 C144.38,73.795 144.237,76.294 144.237,77.329 C144.237,78.365 144.38,80.724 144.448,82.312 L143.481,82.312 L141.678,77.116 C140.984,75.186 140.44,75.186 132.476,75.186 C128.469,75.186 125.282,75.253 122.723,75.322 C122.582,77.743 122.378,80.304 122.378,83.202 L122.378,91.716 L129.57,91.716 C137.941,91.716 138.704,91.579 139.329,90.063 L141.126,85.148 L142.093,85.148 C142.025,87.777 141.95,90.403 141.95,92.964 C141.95,95.8 142.025,98.434 142.093,101.331 L141.126,101.331 L139.329,96.079 C138.704,94.554 137.941,94.411 129.57,94.411 L122.378,94.411 L122.378,103.83 C122.378,107.009 122.582,110.189 122.723,113.095 C125.977,113.168 129.23,113.378 132.34,113.378 C139.738,113.378 140.78,113.299 141.466,112.483 C142.304,111.439 143.06,109.221 144.312,105.143 L145.277,105.143 C145.136,107.146 144.863,109.221 144.863,111.235 L144.863,116.484 C141.262,116.211 130.613,115.94 126.734,115.94 C120.647,115.94 114.011,116.211 109.03,116.484 L109.03,115.517 L114.351,113.728 C116.291,113.095 116.563,112.823 116.563,107.491 L116.563,82.453" fill="#FFFFFE"/>
    <path d="M156.458,72.074 C162.48,72.347 168.424,72.633 174.447,72.633 C180.463,72.633 186.412,72.347 192.435,72.074 L192.435,83.834 L191.469,83.834 L189.386,78.302 C188.419,75.949 187.725,75.667 177.353,75.667 L177.353,105.832 C177.353,109.289 177.48,111.087 177.904,112.061 C178.32,112.958 179.768,113.787 185.03,115.517 L185.03,116.484 C181.776,116.211 178.735,115.94 174.447,115.94 C170.152,115.94 167.11,116.211 163.856,116.484 L163.856,115.517 C169.117,113.787 170.643,112.958 170.989,112.061 C171.404,111.087 171.54,109.289 171.54,105.832 L171.54,75.667 C161.161,75.667 160.474,75.949 159.5,78.302 L157.425,83.834 L156.458,83.834 L156.458,72.074" fill="#FFFFFE"/>
    <path d="M201.529,115.517 L206.857,113.728 C208.792,113.095 209.069,112.823 209.069,107.491 L209.069,82.453 C209.069,75.947 208.86,75.457 207.339,74.982 L201.529,73.033 L201.529,72.074 C205.054,72.347 208.451,72.633 211.705,72.633 C215.224,72.633 218.751,72.347 222.42,72.074 L222.42,73.033 L217.236,74.763 C215.162,75.457 214.872,75.947 214.872,79.337 L214.872,91.716 L235.352,91.716 L235.352,79.337 C235.352,75.947 235.08,75.457 233.004,74.763 L227.814,73.033 L227.814,72.074 C231.49,72.347 235.012,72.633 238.547,72.633 C241.789,72.633 245.182,72.347 248.715,72.074 L248.715,73.033 L242.901,74.982 C241.377,75.457 241.172,75.947 241.172,82.453 L241.172,107.491 C241.172,112.823 241.443,113.095 243.377,113.728 L248.715,115.517 L248.715,116.484 C245.392,116.212 241.377,115.94 237.842,115.94 C235.426,115.94 230.793,116.212 227.814,116.484 L227.814,115.517 L233.351,113.645 C235.148,113.095 235.352,111.507 235.352,102.512 L235.352,94.411 L214.872,94.411 L214.872,102.512 C214.872,111.507 215.093,113.095 216.891,113.645 L222.42,115.517 L222.42,116.484 C219.449,116.212 214.815,115.94 212.387,115.94 C208.86,115.94 204.85,116.212 201.529,116.484 L201.529,115.517" fill="#FFFFFE"/>
    <path d="M264.475,82.453 C264.475,75.947 264.27,75.457 262.74,74.982 L256.93,73.033 L256.93,72.074 C262.67,72.347 267.934,72.633 273.188,72.633 C279.765,72.633 286.271,72.347 292.355,72.074 C292.287,73.795 292.143,76.294 292.143,77.329 C292.143,78.365 292.287,80.724 292.355,82.312 L291.386,82.312 L289.59,77.116 C288.898,75.186 288.34,75.186 280.383,75.186 C276.376,75.186 273.188,75.253 270.633,75.322 C270.486,77.743 270.281,80.304 270.281,83.202 L270.281,91.716 L277.477,91.716 C285.855,91.716 286.609,91.579 287.234,90.063 L289.035,85.148 L289.999,85.148 C289.931,87.777 289.863,90.403 289.863,92.964 C289.863,95.8 289.931,98.434 289.999,101.331 L289.035,101.331 L287.234,96.079 C286.609,94.554 285.855,94.411 277.477,94.411 L270.281,94.411 L270.281,103.83 C270.281,107.009 270.486,110.189 270.633,113.095 C273.883,113.168 277.135,113.378 280.246,113.378 C287.643,113.378 288.681,113.299 289.379,112.483 C290.212,111.439 290.967,109.221 292.22,105.143 L293.184,105.143 C293.042,107.146 292.764,109.221 292.764,111.235 L292.764,116.484 C289.171,116.211 278.512,115.94 274.643,115.94 C268.557,115.94 261.922,116.211 256.93,116.484 L256.93,115.517 L262.262,113.728 C264.191,113.095 264.475,112.823 264.475,107.491 L264.475,82.453" fill="#FFFFFE"/>
    <path d="M4.938,242.715 L7.613,241.811 C8.593,241.495 8.729,241.36 8.729,238.689 L8.729,226.109 C8.729,222.843 8.626,222.589 7.866,222.351 L4.938,221.369 L4.938,220.903 C8.001,221.03 10.811,221.165 13.664,221.165 C16.515,221.165 19.368,221.03 22.185,220.903 C22.144,221.691 22.109,222.522 22.109,223.318 C22.109,224.297 22.144,225.307 22.185,226.279 L21.695,226.279 L20.864,223.74 C20.477,222.697 20.06,222.697 19.088,222.697 L11.826,222.697 C11.75,224.086 11.648,225.483 11.648,226.863 L11.648,230.763 L14.71,230.763 C18.912,230.763 19.3,230.692 19.612,229.926 L20.518,227.461 L20.999,227.461 C20.966,228.778 20.932,230.105 20.932,231.39 C20.932,232.813 20.966,234.131 20.999,235.583 L20.518,235.583 L19.612,232.954 C19.3,232.189 18.912,232.12 14.71,232.12 L11.648,232.12 L11.648,238.689 C11.648,241.36 11.791,241.495 12.833,241.811 L15.508,242.715 L15.508,243.198 C13.629,243.062 12.174,242.919 10.124,242.919 C8.416,242.919 6.748,243.062 4.938,243.198 L4.938,242.715" fill="#FFFFFE"/>
    <path d="M28.787,242.715 L31.461,241.811 C32.434,241.495 32.577,241.36 32.577,238.689 L32.577,226.109 C32.577,222.843 32.468,222.589 31.706,222.351 L28.787,221.369 L28.787,220.903 C30.073,221.03 31.706,221.165 33.585,221.165 C35.389,221.165 37.375,220.903 39.84,220.903 C44.426,220.903 47.414,222.766 47.414,226.25 C47.414,229.755 44.91,231.423 41.717,231.934 L46.509,239.1 C48.53,242.128 48.7,242.366 50.647,242.715 L50.647,243.198 C49.85,243.129 49.021,243.062 48.217,243.062 C47.387,243.062 46.509,243.129 45.645,243.198 C43.418,239.449 40.321,235.004 38.172,232.189 L35.497,232.189 L35.497,236.182 C35.497,240.699 35.599,241.495 36.505,241.777 L39.288,242.715 L39.288,243.198 C37.791,243.062 35.457,242.919 34.244,242.919 C32.468,242.919 30.454,243.062 28.787,243.198 L28.787,242.715 z M35.497,231.034 L37.859,231.034 C41.092,231.034 44.079,230.522 44.079,226.694 C44.079,223.63 41.962,222.312 38.696,222.312 C37.579,222.312 36.539,222.351 35.497,222.351 L35.497,231.034" fill="#FFFFFE"/>
    <path d="M54.357,242.715 C55.186,242.401 56.167,242.015 56.998,241.573 C60.026,234.447 63.776,226.449 66.28,220.194 L67.043,220.194 C69.819,227.421 72.95,234.651 75.904,241.7 L78.823,242.715 L78.823,243.198 C76.979,243.062 75.176,242.919 73.331,242.919 C71.767,242.919 70.242,243.062 68.677,243.198 L68.677,242.715 C69.54,242.502 71.038,242.048 72.08,241.641 C71.665,240.178 70.554,236.918 70.064,235.866 C68.602,235.832 67.111,235.798 65.648,235.798 C64.19,235.798 62.769,235.832 61.312,235.866 C60.366,237.637 59.814,239.687 59.331,241.641 L62.313,242.715 L62.313,243.198 C60.957,243.062 59.604,242.919 58.215,242.919 C56.929,242.919 55.644,243.062 54.357,243.198 L54.357,242.715 z M65.79,225.238 L61.795,234.447 L69.615,234.447 L65.79,225.238" fill="#FFFFFE"/>
    <path d="M107.026,221.54 L104.698,222.385 C103.936,222.657 103.589,223.013 103.548,223.631 C103.446,226.449 103.166,232.6 103.166,234.616 C103.166,236.052 103.166,240.041 103.235,244 L102.405,244 C100.179,240.699 97.784,237.533 95.422,234.335 L88.365,224.85 L88.297,224.85 L88.297,228.742 C88.297,233.328 88.365,240.178 88.467,240.836 C88.574,241.394 88.813,241.675 89.828,241.981 L92.114,242.716 L92.114,243.197 C90.589,243.062 89.031,242.92 87.493,242.92 C86.003,242.92 84.539,243.062 83.049,243.197 L83.049,242.716 L85.689,241.699 C86.173,241.539 86.486,241.224 86.52,240.903 C86.663,239.803 86.902,234.616 86.902,230.164 L86.902,223.284 L86.452,222.59 C85.376,222.107 84.294,221.724 83.185,221.369 L83.185,220.902 C84.294,221.03 85.41,221.166 86.52,221.166 C87.561,221.166 88.609,221.03 89.651,220.902 C90.31,222.107 91.039,223.222 91.876,224.331 L101.71,237.533 L101.778,237.467 L101.778,229.055 C101.778,227.388 101.744,225.672 101.642,223.979 C101.574,223.013 101.295,222.731 100.288,222.312 L97.994,221.369 L97.994,220.902 C99.417,221.03 100.874,221.166 102.303,221.166 C103.861,221.166 105.427,221.03 107.026,220.902 L107.026,221.54" fill="#FFFFFE"/>
    <path d="M114.545,242.715 L117.226,241.811 C118.091,241.495 118.2,241.36 118.227,238.689 C118.269,236.596 118.337,234.48 118.337,232.396 C118.337,230.314 118.269,228.191 118.227,226.109 C118.159,222.843 118.132,222.589 117.465,222.351 L114.545,221.369 L114.545,220.903 C116.213,221.03 117.914,221.165 119.868,221.165 C121.604,221.165 123.305,221.03 125.041,220.903 L125.041,221.369 L122.123,222.351 C121.46,222.589 121.426,222.843 121.358,226.109 C121.324,228.191 121.256,230.314 121.256,232.396 C121.256,234.48 121.324,236.596 121.358,238.689 C121.392,241.36 121.494,241.495 122.365,241.811 L125.041,242.715 L125.041,243.198 C123.416,243.062 121.392,242.919 119.868,242.919 C118.132,242.919 116.111,243.062 114.545,243.198 L114.545,242.715 z M128.899,242.715 C130.846,242.162 131.472,241.981 131.472,241.742 C131.472,241.471 131.193,241.252 130.879,240.904 L122.123,231.39 L129.45,224.713 C130.71,223.571 131.404,222.843 131.404,222.493 C131.404,222.108 130.43,221.895 128.967,221.369 L128.967,220.903 C130.464,221.03 131.996,221.165 133.489,221.165 C134.779,221.165 136.066,221.03 137.345,220.903 L137.345,221.369 C136.407,221.616 134.915,222.005 133.557,223.188 L125.321,230.382 L135.542,241.252 C135.746,241.471 136.271,241.921 136.372,241.948 C136.726,242.128 137.659,242.502 138.529,242.715 L138.529,243.198 C136.862,243.062 135.119,242.919 133.42,242.919 C131.893,242.919 130.396,243.062 128.899,243.198 L128.899,242.715" fill="#FFFFFE"/>
    <path d="M144.159,242.715 L146.833,241.811 C147.807,241.495 147.949,241.36 147.949,238.689 L147.949,226.109 C147.949,222.843 147.841,222.589 147.079,222.351 L144.159,221.369 L144.159,220.903 C147.213,221.03 150.032,221.165 152.883,221.165 C155.729,221.165 158.581,221.03 161.397,220.903 C161.364,221.691 161.33,222.522 161.33,223.318 C161.33,224.297 161.364,225.307 161.397,226.279 L160.908,226.279 L160.071,223.74 C159.688,222.697 159.273,222.697 158.301,222.697 L151.04,222.697 C150.965,224.086 150.87,225.483 150.87,226.863 L150.87,230.763 L153.926,230.763 C158.124,230.763 158.513,230.692 158.826,229.926 L159.729,227.461 L160.213,227.461 C160.18,228.778 160.146,230.105 160.146,231.39 C160.146,232.813 160.18,234.131 160.213,235.583 L159.729,235.583 L158.826,232.954 C158.513,232.189 158.124,232.12 153.926,232.12 L150.87,232.12 L150.87,238.689 C150.87,241.36 151.005,241.495 152.054,241.811 L154.721,242.715 L154.721,243.198 C152.849,243.062 151.386,242.919 149.338,242.919 C147.637,242.919 145.961,243.062 144.159,243.198 L144.159,242.715" fill="#FFFFFE"/>
    <path d="M192.287,221.369 L190.756,221.972 C189.858,222.351 189.368,222.657 189.334,223.392 C189.265,225.341 189.334,228.191 189.265,234.369 C189.197,241.115 185.889,243.615 180.717,243.615 C175.673,243.615 172.163,241.428 172.163,236.119 L172.163,226.347 C172.163,223.426 172.06,222.732 171.087,222.351 L168.582,221.369 L168.582,220.903 C170.291,221.03 171.924,221.165 173.558,221.165 C175.395,221.165 177.205,221.03 179.042,220.903 L179.042,221.369 L177.443,221.972 C175.537,222.697 175.259,222.843 175.191,224.053 C175.082,226.109 175.082,229.083 175.082,234.447 C175.082,238.896 176.089,241.811 181.623,241.811 C185.27,241.811 187.462,239.551 187.462,235.388 C187.462,231.103 187.428,225.578 187.142,223.188 C187.073,222.556 186.557,222.278 185.617,221.972 L183.704,221.369 L183.704,220.903 C185.196,221.03 186.694,221.165 188.225,221.165 C189.545,221.165 190.899,221.03 192.287,220.903 L192.287,221.369" fill="#FFFFFE"/>
    <path d="M198.775,242.715 L201.46,241.811 C202.429,241.495 202.57,241.36 202.57,238.689 L202.57,226.109 C202.57,222.843 202.468,222.589 201.7,222.351 L198.775,221.369 L198.775,220.903 C200.068,221.03 201.7,221.165 203.574,221.165 C205.377,221.165 207.363,220.903 209.833,220.903 C214.424,220.903 217.413,222.766 217.413,226.25 C217.413,229.755 214.906,231.423 211.707,231.934 L216.505,239.1 C218.524,242.128 218.695,242.366 220.64,242.715 L220.64,243.198 C219.84,243.129 219.007,243.062 218.207,243.062 C217.378,243.062 216.505,243.129 215.638,243.198 C213.409,239.449 210.324,235.004 208.165,232.189 L205.491,232.189 L205.491,236.182 C205.491,240.699 205.599,241.495 206.498,241.777 L209.28,242.715 L209.28,243.198 C207.783,243.062 205.457,242.919 204.238,242.919 C202.468,242.919 200.455,243.062 198.775,243.198 L198.775,242.715 z M205.491,231.034 L207.858,231.034 C211.083,231.034 214.072,230.522 214.072,226.694 C214.072,223.63 211.957,222.312 208.679,222.312 C207.573,222.312 206.532,222.351 205.491,222.351 L205.491,231.034" fill="#FFFFFE"/>
    <path d="M225.79,220.903 C228.813,221.031 231.802,221.166 234.83,221.166 C237.854,221.166 240.837,221.031 243.865,220.903 L243.865,226.795 L243.378,226.795 L242.328,224.019 C241.846,222.842 241.5,222.698 236.294,222.698 L236.294,237.849 C236.294,239.584 236.361,240.495 236.566,240.981 C236.77,241.428 237.502,241.854 240.15,242.715 L240.15,243.198 C238.511,243.062 236.984,242.919 234.83,242.919 C232.67,242.919 231.15,243.062 229.505,243.198 L229.505,242.715 C232.154,241.854 232.919,241.428 233.089,240.981 C233.299,240.495 233.367,239.584 233.367,237.849 L233.367,222.698 C228.144,222.698 227.814,222.842 227.32,224.019 L226.283,226.795 L225.79,226.795 L225.79,220.903" fill="#FFFFFE"/>
    <path d="M262.93,242.715 C263.758,242.401 264.732,242.015 265.561,241.573 C268.581,234.447 272.338,226.449 274.842,220.194 L275.605,220.194 C278.391,227.421 281.512,234.651 284.473,241.7 L287.391,242.715 L287.391,243.198 C285.553,243.062 283.747,242.919 281.896,242.919 C280.33,242.919 278.805,243.062 277.239,243.198 L277.239,242.715 C278.119,242.502 279.605,242.048 280.65,241.641 C280.234,240.178 279.119,236.918 278.635,235.866 C277.17,235.832 275.673,235.798 274.219,235.798 C272.768,235.798 271.329,235.832 269.874,235.866 C268.936,237.637 268.377,239.687 267.887,241.641 L270.881,242.715 L270.881,243.198 C269.525,243.062 268.172,242.919 266.778,242.919 C265.493,242.919 264.205,243.062 262.93,243.198 L262.93,242.715 z M274.355,225.238 L270.359,234.447 L278.178,234.447 L274.355,225.238" fill="#FFFFFE"/>
    <path d="M292.632,242.715 L294.479,242.048 C295.693,241.607 295.831,241.429 296.01,240.287 C296.88,234.855 297.779,225.924 297.779,223.353 C297.779,222.732 297.533,222.351 296.88,222.108 L294.895,221.369 L294.895,220.903 C297.124,221.03 299.454,221.131 301.536,221.165 C303.686,226.624 306.091,232.001 308.523,237.399 C311.27,232.07 313.671,226.624 315.96,221.165 C318.012,221.131 320.298,221.03 322.635,220.903 L322.635,221.369 L321.104,221.972 C319.68,222.522 319.402,222.732 319.402,223.353 C319.402,225.754 320.934,238.433 321.314,240.631 C321.498,241.7 321.907,241.948 322.736,242.197 L324.615,242.715 L324.615,243.198 C323.016,243.062 321.382,242.919 319.748,242.919 C318.115,242.919 316.516,243.062 314.916,243.198 L314.916,242.715 L316.624,242.128 C317.803,241.742 318.148,241.252 318.148,240.938 C318.148,239.201 316.516,225.998 316.277,224.297 L316.203,224.297 C313.146,230.865 310.506,236.852 307.9,243.198 L307.443,243.198 C304.973,236.596 302.052,230.267 299.234,223.916 L299.165,223.916 C298.718,228.505 298.064,238.296 298.064,240.631 C298.064,241.429 298.377,241.777 299.344,242.095 L301.156,242.715 L301.156,243.198 C299.659,243.062 298.195,242.919 296.704,242.919 C295.343,242.919 293.994,243.062 292.632,243.198 L292.632,242.715" fill="#FFFFFE"/>
    <path d="M344.739,242.715 L346.576,242.048 C347.793,241.607 347.93,241.429 348.107,240.287 C348.979,234.855 349.879,225.924 349.879,223.353 C349.879,222.732 349.631,222.351 348.979,222.108 L346.991,221.369 L346.991,220.903 C349.217,221.03 351.551,221.131 353.633,221.165 C355.791,226.624 358.187,232.001 360.617,237.399 C363.364,232.07 365.771,226.624 368.061,221.165 C370.111,221.131 372.405,221.03 374.731,220.903 L374.731,221.369 L373.209,221.972 C371.778,222.522 371.498,222.732 371.498,223.353 C371.498,225.754 373.023,238.433 373.412,240.631 C373.582,241.7 374.006,241.948 374.832,242.197 L376.713,242.715 L376.713,243.198 C375.113,243.062 373.48,242.919 371.846,242.919 C370.213,242.919 368.613,243.062 367.015,243.198 L367.015,242.715 L368.721,242.128 C369.898,241.742 370.248,241.252 370.248,240.938 C370.248,239.201 368.613,225.998 368.367,224.297 L368.308,224.297 C365.246,230.865 362.596,236.852 359.99,243.198 L359.541,243.198 C357.077,236.596 354.151,230.267 351.334,223.916 L351.265,223.916 C350.816,228.505 350.155,238.296 350.155,240.631 C350.155,241.429 350.467,241.777 351.449,242.095 L353.252,242.715 L353.252,243.198 C351.756,243.062 350.297,242.919 348.801,242.919 C347.447,242.919 346.092,243.062 344.739,243.198 L344.739,242.715" fill="#FFFFFE"/>
    <path d="M381.376,242.715 C382.213,242.401 383.188,242.015 384.016,241.573 C387.045,234.447 390.797,226.449 393.303,220.194 L394.063,220.194 C396.84,227.421 399.977,234.651 402.926,241.7 L405.854,242.715 L405.854,243.198 C403.998,243.062 402.195,242.919 400.359,242.919 C398.795,242.919 397.254,243.062 395.698,243.198 L395.698,242.715 C396.563,242.502 398.061,242.048 399.102,241.641 C398.684,240.178 397.575,236.918 397.094,235.866 C395.635,235.832 394.132,235.798 392.676,235.798 C391.212,235.798 389.79,235.832 388.327,235.866 C387.387,237.637 386.836,239.687 386.346,241.641 L389.34,242.715 L389.34,243.198 C387.987,243.062 386.625,242.919 385.236,242.919 C383.949,242.919 382.664,243.062 381.376,243.198 L381.376,242.715 z M392.811,225.238 L388.811,234.447 L396.643,234.447 L392.811,225.238" fill="#FFFFFE"/>
    <path d="M410.612,242.715 L413.293,241.811 C414.163,241.495 414.266,241.36 414.299,238.689 C414.333,236.596 414.407,234.48 414.407,232.396 C414.407,230.314 414.333,228.191 414.299,226.109 C414.237,222.843 414.191,222.589 413.539,222.351 L410.612,221.369 L410.612,220.903 C412.28,221.03 413.987,221.165 415.939,221.165 C417.668,221.165 419.375,221.03 421.111,220.903 L421.111,221.369 L418.202,222.351 C417.532,222.589 417.504,222.843 417.43,226.109 C417.396,228.191 417.327,230.314 417.327,232.396 C417.327,234.48 417.396,236.596 417.43,238.689 C417.464,241.36 417.566,241.495 418.43,241.811 L421.111,242.715 L421.111,243.198 C419.479,243.062 417.464,242.919 415.939,242.919 C414.191,242.919 412.184,243.062 410.612,243.198 L410.612,242.715" fill="#FFFFFE"/>
    <path d="M451.857,221.54 L449.521,222.385 C448.761,222.657 448.415,223.013 448.372,223.631 C448.271,226.449 447.998,232.6 447.998,234.616 C447.998,236.052 447.998,240.041 448.066,244 L447.229,244 C445.012,240.699 442.612,237.533 440.247,234.335 L433.194,224.85 L433.116,224.85 L433.116,228.742 C433.116,233.328 433.194,240.178 433.297,240.836 C433.405,241.394 433.643,241.675 434.653,241.981 L436.943,242.716 L436.943,243.197 C435.412,243.062 433.847,242.92 432.323,242.92 C430.818,242.92 429.372,243.062 427.865,243.197 L427.865,242.716 L430.521,241.699 C431.005,241.539 431.317,241.224 431.352,240.903 C431.487,239.803 431.731,234.616 431.731,230.164 L431.731,223.284 L431.283,222.59 C430.2,222.107 429.126,221.724 428.016,221.369 L428.016,220.902 C429.126,221.03 430.233,221.166 431.352,221.166 C432.392,221.166 433.433,221.03 434.487,220.902 C435.134,222.107 435.863,223.222 436.699,224.331 L446.543,237.533 L446.61,237.467 L446.61,229.055 C446.61,227.388 446.577,225.672 446.466,223.979 C446.398,223.013 446.117,222.731 445.113,222.312 L442.825,221.369 L442.825,220.902 C444.242,221.03 445.706,221.166 447.135,221.166 C448.701,221.166 450.258,221.03 451.857,220.902 L451.857,221.54" fill="#FFFFFE"/>
    <path d="M0.06,139.103 L0.06,135.229 C350.702,135.347 200.435,135.311 450.859,135.359 L450.92,139.103 z" fill="#FFFFFE"/>
    <path d="M357.221,10.395 C357.582,10.395 358.158,10.54 358.52,10.54 C358.881,10.54 360.596,11.272 361.371,11.741 C362.021,12.138 362.713,12.783 363.524,13.088 C364.59,13.503 366.602,13.861 366.963,13.861 C367.595,13.861 371.385,13.138 371.438,13.138 C372.918,13.138 376.188,15.242 377.216,16.632 C377.558,17.101 377.718,18.118 377.718,18.479 C377.718,18.84 377.572,19.85 377.572,20.211 C377.572,20.878 376.707,21.944 376.058,21.944 C375.263,21.944 374.324,18.869 374.074,18.599 C372.754,17.119 368.641,15.014 366.531,15.014 C366.35,15.014 365.016,15.105 365.016,15.88 C365.016,17.504 369.201,18.155 369.201,19.779 C369.201,20.301 368.334,20.644 368.045,20.644 C367.054,20.644 364.519,18.546 364.05,18.366 C362.643,17.806 361.031,17.467 359.598,17.18 C357.854,17.138 357.582,17.18 357.445,17.179 C354.966,17.827 352.935,20.08 351.324,22.346 C350.918,22.918 350.941,24.253 350.58,24.253 C350.22,24.253 348.775,23.82 348.416,23.82 C345.349,23.82 344.175,25.949 344.175,28.655 C344.175,29.413 343.798,30.272 343.293,30.867 C342.914,31.319 341.848,31.904 341.486,31.904 C340.44,31.904 339.754,31.11 339.754,30.533 C339.754,30.171 339.798,29.884 339.898,29.521 C339.996,29.174 340.799,27.636 341.394,26.878 C343.957,23.63 347.498,20.742 351.341,18.721 C351.973,18.397 352.985,18.449 353.654,18.142 C354.015,17.98 356.644,16.223 356.644,15.375 C356.644,15.014 355.971,14.433 355.55,14.292 C355.55,14.292 351.263,14.482 350.892,14.416 C350.826,14.358 350.725,14.221 350.725,13.861 C350.725,13.174 351.637,12.795 352.043,12.483 C353.162,11.622 356.065,10.395 357.221,10.395" fill="#FFFFFE"/>
    <path d="M394.1,12.128 C394.461,12.128 394.67,12.187 394.994,12.422 C395.162,12.581 395.201,12.662 395.191,12.845 C395.186,13.011 395.148,13.127 394.994,13.223 C393.546,13.686 390.133,18.274 389.842,19.129 C389.546,19.996 389.265,21.222 389.265,21.582 C389.265,22.178 389.535,22.81 390.059,22.81 C390.42,22.81 391.648,22.27 392.354,22.125 C393.652,21.855 395.904,21.51 396.265,21.51 C398.574,21.51 402.4,23.64 402.4,25.841 C402.4,26.201 402.386,26.698 402.078,27.127 C401.781,27.539 401.012,26.386 400.57,26.16 C399.919,25.829 398.72,25.552 398.359,25.552 C394.857,25.552 394.443,27.862 392.008,27.862 C390.925,27.862 390.165,27.799 389.027,26.391 C388.451,25.688 388.677,24.447 388.208,23.49 C387.973,23.004 387.225,22.639 386.863,22.205 C386.521,21.79 386.146,21.168 385.982,20.591 C385.875,20.176 385.771,19.613 385.915,19.014 C386.425,16.879 387.059,15.593 388.711,14.348 C389.199,13.979 392.964,12.128 394.1,12.128" fill="#FFFFFE"/>
    <path d="M397.709,29.16 C398.069,29.16 399.569,29.743 400.468,29.974 C404.119,30.915 405.607,35.237 406.332,38.027 C406.416,38.35 406.525,38.755 406.525,39.116 C406.525,39.477 406.512,39.902 406.354,40.506 C406.354,40.506 406.297,40.853 405.936,40.853 C405.07,40.853 404.291,40.176 403.283,38.949 C402.02,37.399 401.367,35.391 400.193,33.749 C399.509,32.812 398.496,31.947 397.654,31.195 C397.398,30.964 396.522,30.405 396.481,29.882 C396.459,29.587 396.521,29.431 396.638,29.337 C396.869,29.15 397.348,29.16 397.709,29.16" fill="#FFFFFE"/>
    <path d="M405.287,45.761 C406.73,45.761 409.039,47.781 409.039,49.225 C409.039,49.621 408.632,50.162 408.396,50.181 C405.799,50.451 404.421,53.105 404.421,54.927 C404.421,56.93 405.761,58.486 407.978,59.5 C408.447,59.715 409.195,59.797 409.556,59.797 C409.917,59.797 411.023,59.447 411.818,58.996 C413.099,58.238 413.757,55.833 415.361,56.456 C416.584,58.059 416.978,59.202 416.978,60.557 C416.978,62.722 412.16,63.516 411.564,63.516 C409.292,63.516 406.044,62.118 404.04,59.737 C403.211,58.744 402.484,57.476 401.965,56.346 C401.377,55.068 400.957,53.465 400.957,52.544 C400.957,50.92 402.796,45.761 405.287,45.761" fill="#FFFFFE"/>
    <path d="M396.481,61.999 C396.481,61.639 396.317,60.249 396.137,59.528 C395.92,58.697 395.061,58.064 394.541,58.326 C394.354,58.422 393.594,59.654 393.594,60.268 C393.594,60.629 393.709,62.024 393.403,62.692 C392.717,64.207 389.662,66.113 388.398,66.113 C388.02,66.113 387.243,65.879 387.243,64.815 C387.243,64.453 387.965,63.804 387.965,63.444 C387.965,62.848 387.481,62.968 386.801,62.545 C386.801,62.545 386.531,62.406 386.801,62.039 C387.777,61.633 388.774,61.511 389.784,61.294 C390.795,61.077 392.584,58.625 392.584,57.525 C392.584,57.146 391.573,56.01 390.707,56.01 C390.346,56.01 390.459,56.201 390.459,56.201 C390.655,57.197 390.014,59.038 389.148,59.724 C388.625,60.139 387.82,60.485 387.461,60.485 C387.101,60.485 386.445,60.409 386.282,60.36 C384.314,59.767 383.779,58.175 383.779,56.804 C383.779,56.333 383.963,56.508 383.586,56.013 C383.198,56.12 380.893,57.146 380.893,58.175 C380.893,58.987 383.346,60.34 383.346,60.916 C383.346,62.414 381.037,61.224 381.037,62.505 C381.037,62.865 381.903,66.529 381.903,66.89 L381.903,69.091 C381.903,72.321 384.068,71.401 384.068,74.342 C384.068,74.937 382.734,76.658 382.283,76.84 C381.851,77.001 381.643,77.249 381.283,77.558 C380.986,77.948 381.033,77.995 380.723,78.527 C380.228,79.37 379.575,79.298 378.971,79.183 C377.504,78.901 376.832,78.649 375.623,78.649 C375.264,78.649 374.397,79.613 374.035,79.613 C373.676,79.613 373.15,79.4 372.824,79.058 C372.645,78.876 372.026,76.902 370.943,76.902 C370.584,76.902 368.625,77.806 368.262,77.806 C366.928,77.806 365.303,76.182 365.303,74.918 C365.303,74.828 365.311,73.653 366.319,73.653 C367.06,73.653 366.803,74.531 367.545,74.918 C368.446,74.329 369.707,72.754 370.067,72.754 C370.428,72.754 370.588,72.78 370.823,72.924 C371.365,73.248 372.088,74.721 372.088,75.641 C372.088,76.507 373.098,77.229 373.965,77.229 C375.787,77.229 376.852,75.858 376.852,74.124 C376.852,73.764 376.129,71.238 376.129,70.876 C376.129,70.517 376.127,70.679 376.164,70.523 C376.129,70.076 376.129,69.637 376.074,69.367 C376.125,69.242 376.562,64.526 376.562,64.164 C376.562,61.693 375.264,59.311 375.264,56.731 C375.264,55.666 375.457,52.867 376.432,51.948 C378.398,50.09 382.877,47.781 386.45,47.781 C386.811,47.781 389.053,48.298 390.172,48.822 C390.516,48.966 391.594,49.836 392.096,49.945 C392.83,49.334 393.307,47.709 393.307,46.771 C393.307,43.487 389.121,40.979 389.121,37.243 C389.121,36.883 389.842,32.842 389.842,32.481 C389.842,32.119 389.715,31.369 389.644,30.811 C389.246,27.978 385.836,24.975 383.491,24.975 C383.131,24.975 377.356,25.552 376.996,25.552 C373.422,25.552 371.15,23.242 367.252,23.242 C366.892,23.242 363.332,23.73 361.474,23.856 C353.534,24.415 349.57,30.135 349.57,37.966 C349.57,38.326 349.771,39.645 349.608,40.329 C348.688,43.975 346.25,46.536 346.25,49.803 L346.684,63.442 C346.395,67.534 343.508,65.356 343.508,69.217 C343.508,69.577 343.653,71.413 343.834,72.406 C343.942,73 344.316,73.646 344.568,73.97 C344.713,74.168 345.963,74.775 346.322,74.775 C347.314,74.775 347.889,72.871 348.639,72.609 C349.451,72.841 348.859,74.738 348.982,75.715 C349.235,77.732 350.486,81.676 350.619,82.082 C350.856,82.807 351.127,83.281 351.344,83.822 C351.686,84.689 352.457,85.961 352.457,86.322 C352.457,86.386 352.859,87.405 353.504,88.984 C353.545,88.857 353.605,88.826 353.586,88.766 L353.947,88.766 C354.793,89.482 364.383,98.957 368.101,99.025 L373.729,99.025 C376.075,99.025 379.594,97.672 379.594,94.262 C379.594,91.284 376.273,90.798 374.254,90.798 C373.893,90.798 371.35,91.334 370.571,91.374 C370.193,91.394 368.045,90.798 368.045,89.932 C368.045,88.686 371.258,88.488 372.016,88.488 C372.377,88.488 376.273,89.497 376.635,89.497 C377.988,89.497 380.027,88.686 380.027,86.611 C380.027,85.475 378.205,84.735 377.141,84.735 C375.805,84.735 374.356,85.961 372.787,85.961 C372.426,85.961 370.866,85.211 370.506,85.211 C370.145,85.211 367.781,86.324 367.133,86.305 C366.562,86.288 364.838,84.556 364.477,84.556 C364.115,84.556 362.993,85.61 362.633,85.61 C362.271,85.61 362.17,85.194 361.916,85.086 C362.024,84.83 362.209,82.631 363.652,82.631 C364.014,82.631 365.303,83.579 365.664,83.579 C367.703,83.579 367.486,81.848 369.201,81.848 C371.221,81.848 371.385,84.302 372.955,84.302 C374.235,84.302 374.668,81.991 376.49,81.991 C377.971,81.991 379.43,83.724 380.243,83.724 C381.073,83.724 381.939,82.57 383.418,82.57 C383.779,82.57 384.307,83.367 384.449,83.818 C384.576,84.233 384.446,84.662 384.446,85.096 C384.446,85.529 384.612,86.067 384.848,86.301 C385.045,86.499 385.078,86.756 385.439,86.756 L387.153,86.756 C389.139,86.756 394.295,76.851 394.403,76.453 C394.674,75.46 395.037,73.836 395.037,73.476 C395.037,73.115 395.309,71.523 395.183,69.214 C395.057,66.578 396.481,64.634 396.481,61.999 M365.069,60.622 C364.908,60.52 364.727,60.271 364.727,60.271 C365.332,59.273 366.459,57.922 366.459,57.092 C366.459,56.515 364.935,55.376 364.525,55.431 C363.648,55.718 364.311,56.957 364.238,57.534 C364.058,58.833 362.344,60.629 361.045,60.629 C360.414,60.629 358.791,59.919 358.43,59.541 C356.916,57.936 357.653,57.705 357.653,56.298 C357.653,55.938 357.508,56.081 357.53,55.844 C357.438,55.865 357.438,55.721 357.076,55.721 C356.119,55.721 355.198,57.237 355.198,57.814 C355.198,58.914 355.918,60.306 357.502,60.669 C357.032,61.67 356.697,61.783 355.993,61.783 C353.27,61.783 353.594,58.175 352.385,58.175 C352.024,58.175 351.664,58.464 351.303,58.464 C350.941,58.464 350.246,57.797 349.922,57.527 C349.326,57.039 349.426,56.496 349.426,56.154 C349.426,51.156 353.5,48.269 359.17,47.926 C360.334,48.071 360.469,47.926 360.616,47.926 C361.776,48.071 363.207,48.151 364.254,48.692 C366.059,49.612 368.752,51.289 370.284,53.149 C370.537,53.455 371.077,55.685 371.077,56.37 C371.077,56.731 370.064,60.743 370.067,61.928 C370.068,62.781 370.789,66.113 370.789,66.475 C370.789,67.215 370.883,68.447 370.168,69.428 C369.532,69.343 367.323,65.807 367.323,64.526 C367.323,62.632 369.057,62.324 369.057,59.763 C369.057,59.293 368.967,58.896 368.479,58.896 C368.118,58.896 366.586,60.629 366.225,60.625 C366.225,60.625 365.449,60.865 365.069,60.622 M373.026,105.123 C370.348,105.106 361.659,103.773 359.03,102.103 C362.209,109.467 365.449,116.636 365.953,116.636 C368.262,116.636 374.976,108.444 374.976,106.315 C374.976,105.953 374.814,105.693 374.601,105.425 C373.984,105.235 373.459,105.123 373.026,105.123 M359.03,102.103 C356.856,97.067 354.727,91.976 353.504,88.984 C353.489,89.029 353.467,89.041 353.467,89.137 C353.467,89.497 357.031,100.806 358.998,102.086 C359.008,102.092 359.022,102.097 359.03,102.103" fill="#FFFFFE"/>
    <path d="M357.287,49.658 C358.479,49.566 359.01,49.597 359.467,49.658 C360.99,50.021 364.004,51.3 364.004,53.267 C364.004,53.627 363.933,53.988 363.572,53.988 C363.211,53.988 362.255,52.978 361.894,52.976 L360.926,52.976 C360.808,53.101 360.828,52.906 360.828,53.267 C360.828,53.627 361.117,53.627 361.117,53.988 C361.117,54.349 360.973,54.349 360.949,54.548 C359.41,54.348 358.607,54.726 356.814,55.127 C356.787,54.638 356.787,54.205 356.793,53.799 C356.664,53.679 356.715,53.701 356.355,53.701 C355.199,53.701 354.334,55.866 353.178,55.866 C352.313,55.866 351.88,55.072 351.88,54.566 C351.88,53.014 353.727,50.82 355.242,50.133 C355.783,49.899 356.557,49.804 357.287,49.658" fill="#FFFFFE"/>
    <path d="M388.038,50.668 C388.398,50.668 388.73,50.94 389.2,50.993 C390.427,51.139 392.729,52.328 392.729,53.916 C392.729,54.278 392.577,54.959 392.234,55.576 C391.595,54.978 390.878,54.117 390.034,53.408 L389.648,53.408 C389.532,53.534 389.409,53.338 389.409,53.699 C389.409,54.061 389.545,54.172 389.697,54.505 C389.532,54.69 389.553,54.855 389.191,54.855 C388.977,54.855 387.461,54.132 386.595,54.132 C385.078,54.132 383.13,55.287 382.697,55.287 C382.336,55.287 382.048,54.855 382.048,54.493 C382.048,52.761 384.79,53.195 384.79,51.896 C384.79,51.228 386.54,50.957 386.595,50.957 C386.955,50.957 387.677,50.668 388.038,50.668" fill="#FFFFFE"/>
    <path d="M360.685,55.287 C361.658,55.287 361.695,56.171 361.695,56.443 C361.695,57.111 361.189,57.885 360.611,57.885 C359.566,57.885 359.386,57.056 359.386,56.586 C359.386,55.721 359.837,55.287 360.685,55.287" fill="#FFFFFE"/>
    <path d="M386.595,55.432 C387.424,55.432 387.945,56.226 387.965,56.803 C387.984,57.376 387.172,58.031 386.811,58.031 C386.144,58.031 385.672,57.173 385.655,56.587 C385.647,56.298 386.07,55.432 386.595,55.432" fill="#FFFFFE"/>
    <path d="M381.326,74.413 C381.326,75.569 380.423,76.506 379.377,76.506 C379.016,76.506 379.004,76.507 378.871,76.351 C378.704,76.156 378.882,75.695 378.882,75.695 C378.872,75.333 379.453,74.702 379.449,74.342 C379.441,73.684 379.305,73.267 379.189,71.902 C380.74,72.506 381.326,72.952 381.326,74.413" fill="#FFFFFE"/>
    <path d="M397.861,90.365 C398.311,90.523 398.465,90.554 398.592,91.143 C399.229,94.141 399.945,100.108 399.945,100.469 C399.945,102.128 398.51,105.107 397.717,106.442 C396.652,108.21 394.623,111.047 392.854,112.372 C392.516,112.624 387.063,116.296 384.862,116.49 C383.299,116.629 380.736,114.108 380.079,113.146 C379.16,111.797 378.482,110.355 377.814,109.09 C377.346,108.206 376.563,106.82 376.563,106.458 C376.563,105.917 377.182,105.468 377.49,105.413 C377.633,105.396 381.027,104.84 382.236,104.318 C387.739,101.936 394.971,97.723 396.954,91.424 C397.08,91.011 397.362,90.663 397.861,90.365" fill="#FFFFFE"/>
    <path d="M399.641,108.995 C400.076,109.01 399.98,109.898 399.98,110.189 C400.027,111.938 400.027,111.017 399.941,112.205 C399.91,114.183 398.564,116.672 397.717,118.133 C396.905,119.54 392.224,126.74 389.192,126.74 C387.478,126.74 385.223,124.07 385.223,122.914 C385.223,122.067 386.414,121.69 387.152,121.491 C387.893,121.293 388.641,121.063 389.308,120.774 C393.024,119.096 395.738,115.37 397.738,112.049 C398.2,111.282 398.59,109.424 398.989,109.194 C399.219,109.062 399.34,108.986 399.641,108.995" fill="#FFFFFE"/>
    <path d="M376.488,111.583 C377.598,111.891 377.861,114.145 377.861,114.904 C377.861,116.149 376.814,120.17 374.975,120.17 C374.613,120.17 374.109,119.811 373.748,119.811 C372.882,119.811 371.077,121.615 371.077,122.194 C371.077,123.311 373.132,123.495 374.62,123.703 C375.389,123.81 376.611,123.71 376.611,123.71 C378.07,122.57 377.629,120.326 379.093,118.989 C379.378,118.859 379.66,118.795 380.222,118.661 L380.709,118.661 C380.764,118.713 382.48,121.364 382.48,122.048 C382.48,125.189 374.957,126.884 373.604,126.884 C370.193,126.884 368.479,121.218 368.479,119.378 C368.479,117.737 369.219,116.635 370.716,116.635 C371.077,116.635 373.459,117.501 373.82,117.501 C375.173,117.501 375.552,116.023 375.552,115.264 C375.552,114.904 375.244,113.748 375.263,113.387 C375.318,112.422 375.848,111.579 376.488,111.583" fill="#FFFFFE"/>
    <path d="M330.773,62.515 C331.174,62.503 331.676,62.469 332.147,62.693 C332.713,63.472 332.15,65.04 333.293,65.775 C333.568,65.824 333.844,65.968 334.205,65.968 C335.83,65.968 337.236,63.369 337.453,63.369 C337.813,63.369 338.48,63.805 339.105,63.975 C339.105,63.975 339.22,64.249 339.105,64.723 C339.002,65.144 335.986,68.872 335.463,69.227 C335.229,69.385 334.756,69.624 334.305,69.806 C333.765,70.039 332.978,70.154 332.617,70.154 C330.886,70.154 329.73,67.772 329.73,66.69 C329.73,65.445 330.224,63.701 330.773,62.515" fill="#FFFFFE"/>
    <path d="M351.24,106.389 C351.468,106.262 351.906,106.385 351.906,106.385 C354.996,110.442 357.91,115.165 362.24,117.24 C363.07,117.638 364.084,118.067 364.716,118.699 C365.58,119.582 367.677,122.972 367.677,124.271 C367.677,125.533 366.27,125.57 365.873,125.57 C365.097,125.57 362.881,124.479 362.231,124.155 C355.682,120.762 352.777,113.015 351.078,107.461 C351.078,107.461 350.871,106.596 351.24,106.389" fill="#FFFFFE"/>
    <path d="M342.994,107.67 C343.86,107.67 345.455,110.627 345.816,111.205 C346.105,111.674 348.957,115.789 349.715,117.088 C351.32,119.814 355.842,125.587 355.838,125.949 C355.838,125.949 356.116,126.688 355.832,126.962 C355.701,127.088 355.77,127.157 355.408,127.157 C355.047,127.157 354.016,127.239 353.133,126.37 C352.419,125.668 342.271,110.25 342.271,108.536 C342.271,108.175 342.633,107.67 342.994,107.67" fill="#FFFFFE"/>
    <path d="M353.063,86.462 C353.088,86.545 353.531,88.76 353.531,89.122 C353.531,89.482 354.318,90.876 354.715,91.688 C355.6,93.474 356.764,95.447 358.026,97.015 C359.506,98.874 362.448,101.24 364.414,102.521 C367.014,104.199 370.402,105.09 373.092,105.108 C373.523,105.108 374.049,105.219 374.664,105.409 C374.879,105.677 375.038,105.938 375.038,106.299 C375.038,108.41 368.326,116.62 366.018,116.62 C364.772,116.62 363.16,115.193 362.071,114.485 C358.682,112.282 355.184,108.429 353.146,105.037 C352.063,103.215 349.635,99.208 349.635,97.278 C349.635,96.916 349.779,95.978 349.779,95.617 C349.779,95.256 351.078,90.926 351.078,90.565 C351.078,90.204 352.521,86.668 352.521,86.307 L353.063,86.462" fill="#FFFFFE"/>
    <path d="M448.13,136.007 C448.129,135.924 447.956,127.658 442.067,122.542 C437.619,118.678 424.957,113.082 417.393,109.739 C414.086,108.278 411.697,107.222 410.726,106.657 C410.361,106.459 409.508,105.994 409.534,105.053 C409.544,104.743 409.548,104.616 411.056,101.189 L411.164,100.941 C412.279,98.381 413.285,96.268 414.173,94.404 C416.637,89.227 417.601,87.057 416.708,85.332 C415.651,83.289 411.722,81.199 404.866,77.681 L404.122,77.299 L404.199,76.466 C404.276,75.622 404.972,74.404 406.762,71.972 L407.343,71.183 L408.168,71.415 C409.046,71.662 409.867,71.926 410.644,72.176 C414.946,73.559 417.105,74.252 420.389,69.771 C422.318,67.135 422.436,62.959 421.695,59.99 C421.041,57.361 420.666,57.05 418.584,55.324 L418.052,54.885 C417.626,54.554 416.833,53.937 416.897,52.968 C416.993,51.576 417.438,50.293 417.867,49.053 C418.407,47.494 418.918,46.021 418.776,44.349 L418.726,43.738 C418.417,39.973 417.596,29.973 413.307,28.867 L412.739,28.721 L412.005,27.14 L412.245,26.619 C414.474,21.803 411.682,15.571 407.694,12.328 C404.912,10.066 402.048,9.606 400.035,11.101 L398.732,12.068 L398.144,10.556 C397.464,8.813 396.633,7.776 395.671,7.474 C394.673,7.162 393.335,7.563 391.688,8.668 L390.606,9.394 L389.406,7.393 C387.102,4.304 385.565,3.051 382.192,3.259 C376.977,3.584 370.348,4.273 365.345,6.742 L364.651,7.084 L364.04,6.612 C359.934,3.439 353.969,3.975 346.31,8.204 C343.353,9.836 342.797,12.581 342.429,14.397 C342.206,15.496 342.03,16.365 341.247,16.781 L340.714,17.063 C336.147,19.477 331.834,21.758 331.898,27.052 C331.933,29.793 330.68,30.704 329.673,31.437 C329.011,31.918 328.488,32.299 328.102,33.27 C328.019,33.505 327.971,34.431 328.002,35.209 C327.996,37.261 328.338,38.915 328.699,40.666 C328.912,41.695 329.132,42.759 329.29,43.935 C329.49,45.422 328.655,46.384 327.918,47.234 C326.555,48.806 324.857,50.761 328.594,58.273 L328.913,58.915 L328.515,59.512 C326.112,63.11 324.858,69.137 326.921,72.994 C328.087,75.175 330.171,76.28 333.115,76.28 C335.538,76.28 337.668,74.869 339.078,73.936 C340.041,73.298 340.634,72.917 341.299,72.949 L341.942,72.984 L342.283,73.531 C342.989,74.665 343.828,75.771 344.639,76.841 L344.923,77.216 L344.887,77.684 C344.816,78.597 344.06,79.192 341.444,81.113 C338.582,83.217 333.254,87.131 333.342,89.671 C333.377,90.682 335.726,94.596 337.28,97.186 C339.37,100.669 340.607,102.774 340.818,103.99 L341.315,105.336 L340.353,105.842 C335.482,108.397 330.775,110.461 326.223,112.458 C311.961,118.712 301.657,123.23 301.714,135.987 L299.237,135.998 C299.174,121.615 310.672,116.574 325.229,110.19 C329.458,108.335 333.824,106.421 338.301,104.117 C337.931,103.081 336.346,100.441 335.157,98.46 C332.523,94.072 330.921,91.297 330.867,89.758 C330.733,85.91 336.077,81.985 339.978,79.118 C340.696,78.59 341.535,77.973 342.063,77.539 C341.632,76.964 341.202,76.377 340.79,75.773 C340.674,75.849 340.556,75.927 340.444,76.001 C338.889,77.031 336.283,78.756 333.115,78.756 C328.221,78.756 325.858,76.258 324.737,74.162 C322.267,69.54 323.55,62.946 326.07,58.746 C322.338,50.924 324.006,47.966 326.048,45.612 C326.657,44.909 326.883,44.612 326.837,44.266 C326.689,43.176 326.479,42.155 326.274,41.167 C325.903,39.369 325.52,37.51 325.526,35.255 C325.502,34.69 325.479,33.162 325.801,32.353 C326.453,30.717 327.473,29.976 328.217,29.434 C329.058,28.823 329.44,28.544 329.422,27.083 C329.34,20.275 335.005,17.28 339.557,14.874 L339.818,14.736 C339.876,14.529 339.944,14.191 340.002,13.905 C340.404,11.919 341.153,8.221 345.113,6.036 C353.364,1.481 360.025,0.867 364.93,4.199 C370.222,1.798 376.817,1.113 382.038,0.788 C386.924,0.485 389.095,2.831 391.41,5.939 C393.28,4.915 394.925,4.645 396.412,5.112 C397.801,5.547 398.955,6.633 399.857,8.346 C402.644,7.085 406.055,7.803 409.257,10.407 C413.695,14.018 417.009,20.852 414.849,26.795 C420.012,29.128 420.802,38.769 421.193,43.535 L421.243,44.14 C421.429,46.335 420.779,48.21 420.206,49.865 C419.854,50.88 419.521,51.844 419.401,52.795 C419.463,52.846 419.529,52.898 419.572,52.931 L420.165,53.418 C422.345,55.226 423.247,55.974 424.098,59.392 C424.913,62.662 424.954,67.726 422.387,71.234 C418.048,77.156 414.267,75.941 409.886,74.533 C409.384,74.372 408.863,74.204 408.319,74.039 C407.652,74.968 407.252,75.587 407.011,75.999 C421.281,83.36 421.628,84.501 416.408,95.467 C415.529,97.315 414.532,99.408 413.434,101.93 L413.321,102.186 C412.773,103.432 412.444,104.199 412.248,104.67 C413.281,105.215 415.567,106.225 418.394,107.474 C426.584,111.094 438.961,116.564 443.691,120.673 C450.438,126.534 450.603,135.598 450.606,135.982 L448.13,136.007" fill="#FFFFFE"/>
  </g>
  <defs/>
</svg>
